<svg width="256" height="256" viewBox="0 0 256 256" fill="none" xmlns="http://www.w3.org/2000/svg">
  <rect width="256" height="256" rx="32" fill="#7C3AED"/>
  <rect x="70" y="60" width="16" height="140" rx="8" fill="#EF4444" transform="rotate(-15 78 130)"/>
  <rect x="100" y="50" width="16" height="150" rx="8" fill="#F59E0B"/>
  <rect x="130" y="55" width="16" height="145" rx="8" fill="#10B981" transform="rotate(10 138 127.5)"/>
  <rect x="160" y="65" width="16" height="135" rx="8" fill="#3B82F6" transform="rotate(-8 168 132.5)"/>
  <rect x="74" y="60" width="12" height="20" fill="#FBBF24" transform="rotate(-15 80 70)"/>
  <rect x="102" y="50" width="12" height="20" fill="#FDE047"/>
  <rect x="132" y="55" width="12" height="20" fill="#86EFAC" transform="rotate(10 138 65)"/>
  <rect x="162" y="65" width="12" height="20" fill="#93C5FD" transform="rotate(-8 168 75)"/>
  <text x="128" y="220" text-anchor="middle" fill="white" font-family="Arial" font-size="14" font-weight="bold">Creative Tools</text>
</svg>