<svg width="372" height="387" viewBox="0 0 372 387" fill="none" xmlns="http://www.w3.org/2000/svg">
<path fill-rule="evenodd" clip-rule="evenodd" d="M273.24 147.339C273.24 150.173 270.947 152.469 268.12 152.469C265.291 152.469 262.998 150.173 262.998 147.339C262.998 144.507 265.291 142.211 268.12 142.211C270.947 142.211 273.24 144.507 273.24 147.339Z" fill="#A36E4A"/>
<path fill-rule="evenodd" clip-rule="evenodd" d="M55.9551 346.432H291.438V47.6445H55.9551V346.432Z" fill="#534252"/>
<path fill-rule="evenodd" clip-rule="evenodd" d="M20.3758 229.791C20.4759 249.478 20.3467 270.126 10.9659 287.427C9.7424 289.682 8.32033 292.146 8.87425 294.652C9.7071 298.421 14.4677 299.843 18.2872 299.325C23.8457 298.574 28.8534 295.264 32.4404 290.946C36.0279 286.627 38.3074 281.356 39.8985 275.97C41.6984 269.879 42.6743 263.545 42.7927 257.194" fill="#FAC112"/>
<path fill-rule="evenodd" clip-rule="evenodd" d="M42.7913 257.193L20.3744 229.791C20.4093 236.626 20.4155 243.577 20.0174 250.463C21.2722 259.253 21.4959 268.195 20.6644 277.032C20.0814 283.226 19.0587 289.838 21.8764 295.382C22.3287 296.272 22.8721 297.088 23.4847 297.837C26.9388 296.319 30.0147 293.864 32.4395 290.945C36.0265 286.627 38.3062 281.356 39.8977 275.968C41.6972 269.878 42.673 263.544 42.7913 257.193Z" fill="#F5A921"/>
<path fill-rule="evenodd" clip-rule="evenodd" d="M46.5965 271.383C37.9479 295.564 47.8989 313.054 53.0506 325.935C54.5543 329.695 56.3017 333.464 56.5823 337.506C56.8635 341.546 55.2922 346.032 51.6903 347.875C50.642 348.411 49.385 348.776 48.7967 349.797C48.1232 350.966 48.696 352.54 49.7372 353.396C50.778 354.254 52.1564 354.557 53.4853 354.781C60.5679 355.972 69.3911 354.713 72.3505 348.159C73.3833 345.871 73.5011 343.291 73.6044 340.783C74.1133 328.42 74.68 315.967 77.5939 303.943C79.2287 297.198 81.6134 290.462 81.2343 283.531" fill="#FAC112"/>
<path fill-rule="evenodd" clip-rule="evenodd" d="M80.3717 292.784C79.8496 292.396 79.2365 292.227 78.5351 292.41C77.716 292.624 77.114 293.306 76.5919 293.974C68.6526 304.135 67.5116 317.927 67.4008 330.828C67.3546 336.204 67.4066 341.725 65.5017 346.752C64.1903 350.21 61.7046 353.417 58.5352 355.173C64.3016 355.11 70.0667 353.212 72.3477 348.161C73.3809 345.872 73.4982 343.292 73.602 340.784C74.1104 328.421 74.6776 315.968 77.5915 303.944C78.4905 300.234 79.6032 296.523 80.3717 292.784Z" fill="#F5A921"/>
<path fill-rule="evenodd" clip-rule="evenodd" d="M81.2326 283.529L57.99 275.377C56.7361 276.564 55.7094 277.98 55.0094 279.655C50.452 290.56 54.5169 309.632 57.5262 320.468C59.9819 329.311 63.7348 338.186 62.7011 347.307C62.4208 349.781 61.8343 352.4 61.3916 354.985C66.1204 354.393 70.4462 352.37 72.3488 348.157C73.3816 345.869 73.4995 343.289 73.6024 340.78C74.1117 328.417 74.6784 315.964 77.5919 303.941C79.2271 297.195 81.6114 290.46 81.2326 283.529Z" fill="#CD9C00"/>
<path fill-rule="evenodd" clip-rule="evenodd" d="M6.51284 167.096C7.55181 169.448 9.42364 171.33 11.4146 172.954C12.3525 173.719 13.4136 174.471 14.6229 174.498C15.9478 174.528 17.1652 173.638 17.859 172.507C18.5519 171.375 18.8053 170.032 18.9628 168.714C19.541 163.863 18.973 158.878 17.3183 154.282C16.6559 152.442 15.5758 150.451 13.6727 150.013C11.8066 149.583 9.95195 150.877 8.80484 152.413C6.31423 155.748 4.80564 163.234 6.51284 167.096Z" fill="#774F38"/>
<path fill-rule="evenodd" clip-rule="evenodd" d="M22.1928 184.945C21.6221 179.765 16.9671 176.029 11.7956 176.601C6.62418 177.172 2.89421 181.834 3.46489 187.015C4.03557 192.194 8.69064 195.929 13.8621 195.358C19.0335 194.786 22.7636 190.124 22.1928 184.945Z" fill="#128377"/>
<path fill-rule="evenodd" clip-rule="evenodd" d="M11.7932 176.608C16.1698 176.125 20.1659 178.731 21.6406 182.682C21.0614 186.858 17.7287 190.274 13.3522 190.759C8.97559 191.242 4.97948 188.636 3.50488 184.686C4.08396 180.508 7.41669 177.092 11.7932 176.608Z" fill="#00A69C"/>
<path fill-rule="evenodd" clip-rule="evenodd" d="M113.909 152.842C113.909 152.842 115.062 166.024 104.275 173.545L99.6103 161.055L113.909 152.842Z" fill="#774F38"/>
<path fill-rule="evenodd" clip-rule="evenodd" d="M14.1441 157.19C14.1441 157.19 10.4975 182.823 14.6635 212.701C17.8502 235.558 33.4815 274.036 61.0174 290.533C78.8325 301.207 130.848 272.105 140.356 249.737C149.863 227.369 137.137 216.275 122.675 197.472C104.271 173.542 103.359 157.989 103.359 157.989L24.6851 120.053L10.0742 132.326L14.1441 157.19Z" fill="#FAC112"/>
<path fill-rule="evenodd" clip-rule="evenodd" d="M103.359 157.991L66.4285 140.184C62.5472 147.919 67.5293 164.973 68.1798 172.5C69.3477 186.007 70.4564 199.519 71.5051 213.035C73.5539 239.438 75.3697 265.859 76.9638 292.293C93.5795 289.671 115.801 277.469 129.457 264.283C128.979 249.475 128.112 234.667 127.241 219.882C126.888 213.881 126.533 207.877 126.125 201.878C124.993 200.453 123.839 198.989 122.675 197.474C104.271 173.546 103.359 157.991 103.359 157.991Z" fill="#CD9C00"/>
<path fill-rule="evenodd" clip-rule="evenodd" d="M143.053 241.178C138.913 231.174 133.038 221.699 126.95 212.716C116.118 196.734 104.121 180.992 98.6558 162.468L92.4512 152.729L103.359 157.988C103.359 157.988 104.271 173.542 122.674 197.471C135.167 213.714 146.362 224.205 143.053 241.178Z" fill="#CD9C00"/>
<path fill-rule="evenodd" clip-rule="evenodd" d="M83.4176 181.484C83.9164 186.01 87.9849 189.275 92.5044 188.776C97.0239 188.276 100.283 184.201 99.7847 179.675C99.2864 175.147 95.2179 171.882 90.6983 172.383C86.1783 172.882 82.9189 176.956 83.4176 181.484Z" fill="#CD9C00"/>
<path fill-rule="evenodd" clip-rule="evenodd" d="M14.146 157.19L10.5303 135.1C10.8511 133.734 11.2086 132.376 11.6187 131.03L24.6871 120.053L102.219 157.438C102.716 158.296 103.205 159.159 103.69 160.028C103.93 161.463 104.308 163.619 104.831 166.348C79.504 166.096 54.3343 157.018 34.6945 140.993C32.2388 138.989 29.8285 136.836 28.1893 134.121C26.9896 140.624 26.3762 145.624 22.8575 151.22C20.7443 154.581 17.6062 157.475 14.0206 159.074C14.1018 157.867 14.146 157.19 14.146 157.19Z" fill="#CD9C00"/>
<path fill-rule="evenodd" clip-rule="evenodd" d="M68.7588 97.5114C69.3325 91.1308 73.3666 85.6228 77.6686 80.8818C80.6302 77.6181 83.9139 74.4557 88.0159 72.8519C91.342 71.5514 95.0155 71.3636 98.5667 71.7348C106.6 72.5757 114.385 76.3538 119.642 82.4971C124.898 88.6403 127.444 97.1533 125.931 105.1C124.418 113.048 118.705 120.178 111.108 122.928C104.776 125.22 97.7462 124.478 91.2061 122.881" fill="#92603D"/>
<path fill-rule="evenodd" clip-rule="evenodd" d="M113.812 121.728C112.942 122.191 112.039 122.595 111.108 122.933C104.777 125.225 97.7462 124.484 91.2066 122.886L68.7588 97.5166C69.3326 91.1361 73.3671 85.6276 77.6686 80.887C80.4421 77.8303 83.4977 74.8636 87.2436 73.1816C88.3558 76.6318 87.7238 80.8137 84.5031 84.1989C89.7589 83.562 95.2729 85.7408 98.6784 89.8006C100.97 92.5316 102.311 96.4027 101 99.7189C100.106 101.98 97.6584 103.563 95.3271 103.616C103.583 106.825 110.466 113.505 113.812 121.728Z" fill="#774F36"/>
<path fill-rule="evenodd" clip-rule="evenodd" d="M113.906 152.846C111.75 158.217 105.355 160.442 99.6081 161.059C85.7705 162.543 71.9187 158.386 59.1615 152.816C45.1116 146.681 30.814 137.569 25.8941 123.03C25.3927 127.244 24.9802 130.485 24.2735 134.671C23.4442 139.584 22.4383 144.574 19.9852 148.91C18.2127 152.043 15.738 154.729 13.0266 157.094C10.8507 158.991 8.50975 160.698 6.03855 162.188C4.80008 146.533 3.89749 128.694 13.4446 116.235C16.4216 112.35 20.2513 109.195 24.3044 106.456C34.8521 99.3294 47.3352 94.813 60.0584 94.7201C72.7816 94.6274 85.6884 99.1796 94.7907 108.084C103.892 116.989 108.789 130.341 106.53 142.881C108.931 141.765 112.456 143.546 113.737 145.866C115.021 148.186 114.893 150.385 113.906 152.846Z" fill="#A77C51"/>
<path fill-rule="evenodd" clip-rule="evenodd" d="M91.6697 161.314C93.8797 159.27 95.5948 156.753 96.2498 153.839C97.2777 149.268 94.9266 143.802 90.4366 142.485C91.4297 124.717 83.6788 109.32 71.826 96.6909C71.5586 96.4057 71.2769 96.1057 70.9883 95.7949C79.8906 97.6153 88.307 101.737 94.7901 108.079C103.892 116.984 108.788 130.337 106.53 142.878C108.931 141.761 112.455 143.542 113.738 145.862C115.02 148.182 114.893 150.38 113.906 152.841C111.75 158.213 105.355 160.438 99.6077 161.054C96.9595 161.338 94.3112 161.413 91.6697 161.314Z" fill="#93603D"/>
<path fill-rule="evenodd" clip-rule="evenodd" d="M63.0519 169.443C61.8301 158.357 51.8668 150.361 40.7978 151.585C29.7288 152.809 21.7458 162.787 22.9671 173.873C24.1888 184.96 34.1522 192.955 45.2211 191.732C56.2901 190.509 64.2735 180.529 63.0519 169.443Z" fill="#F6AB21"/>
<path fill-rule="evenodd" clip-rule="evenodd" d="M37.0406 149.166C48.4317 146.908 56.6618 154.447 56.6618 154.447C56.6618 154.447 59.2067 156.414 60.9342 152.476C60.9342 152.476 61.828 159.076 55.991 157.412C55.991 157.412 49.3061 148.81 37.0397 150.665C37.0397 150.665 29.9717 151.113 23.8438 159.784C23.8438 159.784 28.4229 150.874 37.0406 149.166Z" fill="#221F1F"/>
<path fill-rule="evenodd" clip-rule="evenodd" d="M60.9336 168.342C59.7119 157.256 49.7486 149.259 38.6796 150.483C27.6106 151.706 19.6277 161.686 20.849 172.772C22.0702 183.858 32.0335 191.854 43.1029 190.63C54.1719 189.407 62.1553 179.428 60.9336 168.342Z" fill="white"/>
<mask id="mask0_842_553" style="mask-type:luminance" maskUnits="userSpaceOnUse" x="20" y="150" width="42" height="41">
<path fill-rule="evenodd" clip-rule="evenodd" d="M38.6792 150.483C27.6107 151.706 19.6273 161.685 20.8491 172.771C22.0703 183.858 32.0336 191.853 43.103 190.63C54.172 189.407 62.155 179.427 60.9336 168.341C59.7949 158.008 51.0604 150.361 40.9161 150.359C40.1768 150.359 39.4313 150.4 38.6792 150.483Z" fill="white"/>
</mask>
<g mask="url(#mask0_842_553)">
<path fill-rule="evenodd" clip-rule="evenodd" d="M65.5501 185.352C61.678 191.9 53.2378 194.066 46.6985 190.188C40.1593 186.309 37.9975 177.856 41.8695 171.307C45.7421 164.757 54.1824 162.592 60.7215 166.47C67.2603 170.349 69.4221 178.802 65.5501 185.352Z" fill="#3DABDF"/>
</g>
<mask id="mask1_842_553" style="mask-type:luminance" maskUnits="userSpaceOnUse" x="20" y="150" width="42" height="41">
<path fill-rule="evenodd" clip-rule="evenodd" d="M38.6792 150.483C27.6107 151.706 19.6273 161.685 20.8491 172.771C22.0703 183.858 32.0336 191.853 43.103 190.63C54.172 189.407 62.155 179.427 60.9336 168.341C59.7949 158.008 51.0604 150.361 40.9161 150.359C40.1768 150.359 39.4313 150.4 38.6792 150.483Z" fill="white"/>
</mask>
<g mask="url(#mask1_842_553)">
<path fill-rule="evenodd" clip-rule="evenodd" d="M60.3784 182.284C58.1977 185.973 53.4446 187.191 49.7619 185.008C46.0796 182.823 44.8618 178.063 47.0426 174.375C49.2233 170.686 53.9764 169.466 57.6587 171.651C61.3414 173.835 62.5592 178.596 60.3784 182.284Z" fill="#221E1F"/>
</g>
<mask id="mask2_842_553" style="mask-type:luminance" maskUnits="userSpaceOnUse" x="20" y="150" width="42" height="41">
<path fill-rule="evenodd" clip-rule="evenodd" d="M38.6792 150.483C27.6107 151.706 19.6273 161.685 20.8491 172.771C22.0703 183.858 32.0336 191.853 43.103 190.63C54.172 189.407 62.155 179.427 60.9336 168.341C59.7949 158.008 51.0604 150.361 40.9161 150.359C40.1768 150.359 39.4313 150.4 38.6792 150.483Z" fill="white"/>
</mask>
<g mask="url(#mask2_842_553)">
<path fill-rule="evenodd" clip-rule="evenodd" d="M47.6384 177.625C46.1594 180.127 42.9361 180.955 40.4388 179.473C37.9412 177.992 37.1158 174.763 38.5944 172.262C40.0734 169.761 43.2968 168.934 45.7944 170.415C48.2917 171.896 49.1174 175.125 47.6384 177.625Z" fill="white"/>
</g>
<path fill-rule="evenodd" clip-rule="evenodd" d="M98.5815 176.51C98.0109 171.331 93.3558 167.596 88.1844 168.167C83.0125 168.739 79.2829 173.401 79.8536 178.58C80.4243 183.759 85.0793 187.496 90.2508 186.924C95.4223 186.353 99.1523 181.689 98.5815 176.51Z" fill="#128377"/>
<path fill-rule="evenodd" clip-rule="evenodd" d="M88.1858 168.167C92.5624 167.683 96.5585 170.289 98.0331 174.239C97.454 178.417 94.1213 181.833 89.7447 182.316C85.3682 182.801 81.372 180.194 79.8975 176.244C80.4765 172.067 83.8092 168.65 88.1858 168.167Z" fill="#00A69C"/>
<path fill-rule="evenodd" clip-rule="evenodd" d="M94.9841 98.7576C97.3159 94.0693 93.3228 88.0795 88.2308 86.885C83.1388 85.6906 77.8292 88.0847 73.7708 91.3891C79.0817 87.8898 82.6167 81.8204 83.0438 75.4677C83.1154 74.4046 83.0832 73.2615 82.4811 72.3822C81.6204 71.1263 79.8077 70.8258 78.3689 71.3199C76.9306 71.8137 75.7975 72.9272 74.7917 74.0695C71.2613 78.079 68.6404 82.8867 67.1817 88.0286C66.893 82.5366 64.673 77.1657 61.0008 73.0767C60.1786 72.1611 59.2371 71.2784 58.057 70.931C55.2905 70.1163 52.4574 72.7602 52.0213 75.6158C51.5853 78.471 52.8387 81.2957 54.2096 83.8371C56.1807 87.4915 58.4635 90.978 61.0242 94.2451C55.6282 91.1805 49.2552 89.8728 43.0907 90.5656C40.9571 90.8051 38.4379 91.6663 38.0076 93.773C37.4991 96.2618 40.2545 98.0667 42.5747 99.0918C49.186 102.014 56.1115 104.996 63.326 104.587C69.3766 104.244 72.9697 100.775 78.2591 98.7046C83.2986 96.7318 89.9115 97.2851 94.9841 98.7576Z" fill="#F15A2B"/>
<path fill-rule="evenodd" clip-rule="evenodd" d="M79.3658 90.9216C75.8375 91.6634 72.7819 93.7946 69.8535 95.9C73.6052 92.6889 76.3274 88.2901 77.5311 83.497C77.7685 82.5501 77.8899 81.3933 77.166 80.739C76.1774 79.8461 74.6207 80.6713 73.6356 81.5683C70.3368 84.5729 67.8281 88.4399 66.4272 92.6796C66.2568 88.192 64.3907 83.7892 61.2858 80.5493C60.8294 80.0733 60.2878 79.5945 59.6302 79.5605C58.7669 79.5154 58.0339 80.2965 57.837 81.1399C57.6401 81.9829 57.8497 82.8631 58.0828 83.6972C59.233 87.8162 60.9658 91.7717 63.2137 95.4089C59.5279 92.6788 54.8608 91.3076 50.2869 91.6109C49.0207 91.6944 47.7094 91.9237 46.6855 92.674C45.6615 93.425 45.0184 94.821 45.4762 96.0061C47.7385 101.864 62.3927 103.445 67.577 101.927C70.3342 101.121 72.8049 99.4802 75.4275 98.3424C79.7578 96.4632 84.4075 95.7532 88.8124 94.1964C87.1532 91.0233 82.6209 90.2374 79.3658 90.9216Z" fill="#FAC011"/>
<path fill-rule="evenodd" clip-rule="evenodd" d="M51.5025 194.525C53.5688 192.857 55.1728 190.658 57.3086 189.081C59.4443 187.503 62.4742 186.646 64.7296 188.046C66.473 189.129 67.2693 191.24 67.7102 193.245C69.334 200.631 67.5337 208.767 62.6835 214.561C57.8333 220.356 49.9683 223.57 42.4942 222.501C35.0201 221.431 28.2606 215.971 25.936 208.777C24.9504 205.727 24.841 202.079 26.895 199.621C30.0358 195.862 34.6666 197.421 38.7594 197.806C43.2409 198.228 47.9287 197.408 51.5025 194.525Z" fill="#221E1F"/>
<path fill-rule="evenodd" clip-rule="evenodd" d="M37.9231 206.423C36.4379 206.64 35.2922 205.166 34.6199 203.821C33.5682 201.718 32.8063 199.472 32.3359 197.167C34.4376 197.11 36.6688 197.61 38.7599 197.806C39.1377 197.842 39.5173 197.865 39.8978 197.883C39.9609 199.166 40.024 200.449 40.0871 201.734C40.1339 202.682 40.1772 203.656 39.8797 204.558C39.5818 205.46 38.8614 206.286 37.9231 206.423Z" fill="white"/>
<path fill-rule="evenodd" clip-rule="evenodd" d="M51.5037 194.521C53.518 192.895 55.0968 190.768 57.1536 189.201C58.0319 192.173 58.4692 195.274 58.4376 198.373C58.4251 199.591 58.1457 201.08 56.9912 201.465C55.7531 201.877 54.6038 200.677 53.9021 199.575C52.9059 198.014 52.0413 196.369 51.3135 194.666C51.3762 194.616 51.4415 194.572 51.5037 194.521Z" fill="white"/>
<path fill-rule="evenodd" clip-rule="evenodd" d="M39.8978 197.883C39.957 199.089 40.0165 200.294 40.0762 201.5C39.2649 201.568 38.4519 201.611 37.6376 201.602C36.1935 201.584 34.7167 201.429 33.3846 200.897C32.9498 199.68 32.5946 198.434 32.3359 197.167C34.4377 197.11 36.6688 197.61 38.76 197.806C39.1377 197.842 39.5178 197.865 39.8978 197.883Z" fill="#CECFCF"/>
<path fill-rule="evenodd" clip-rule="evenodd" d="M57.1536 189.201C57.6378 190.839 57.9824 192.517 58.1939 194.211C56.3423 195.292 54.3076 196.329 52.5532 197.257C52.1043 196.41 51.69 195.546 51.3135 194.664C51.3762 194.616 51.4415 194.571 51.5037 194.521C53.518 192.895 55.0968 190.768 57.1536 189.201Z" fill="#CFCECE"/>
<path fill-rule="evenodd" clip-rule="evenodd" d="M49.3538 208.401C54.1112 205.826 61.5627 204.313 67.2056 206.065C66.2766 209.166 64.7626 212.082 62.6838 214.566C57.8337 220.36 49.9686 223.574 42.4945 222.504C41.0005 222.29 39.5373 221.894 38.1299 221.349C40.2061 215.9 44.2221 211.178 49.3538 208.401Z" fill="#EF5D48"/>
<path fill-rule="evenodd" clip-rule="evenodd" d="M67.205 206.064C66.2763 209.165 64.762 212.08 62.6832 214.565C59.7715 218.043 55.7697 220.582 51.4209 221.833C52.5738 218.624 53.5174 215.403 54.0721 212.029C54.3784 210.166 54.536 208.239 54.6958 206.304C58.7669 205.189 63.3969 204.882 67.205 206.064Z" fill="#CA4D3F"/>
<path fill-rule="evenodd" clip-rule="evenodd" d="M97.8398 279.248C107.827 292.832 117.816 306.414 127.804 319.998C130.898 324.206 134.6 328.779 139.79 329.323C142.687 329.627 145.538 328.582 148.253 327.523C152.299 325.943 157.138 322.811 156.079 318.592C155.243 315.258 151.291 314.043 148.39 312.209C141.355 307.763 139.711 298.422 138.262 290.218C135.019 271.833 129.472 253.858 121.797 236.846" fill="#FAC112"/>
<path fill-rule="evenodd" clip-rule="evenodd" d="M156.179 319.189C155.041 318.605 153.682 318.348 152.389 318.329C150.196 318.297 148 318.765 145.819 318.52C141.386 318.022 137.843 314.74 134.643 311.625C132.907 307.422 109.581 285.187 106.021 287.768C105.576 288.091 105.32 288.607 105.208 289.267C112.74 299.51 120.272 309.753 127.804 319.995C130.897 324.203 134.599 328.776 139.789 329.32C142.686 329.624 145.538 328.579 148.252 327.52C152.104 326.016 156.661 323.104 156.179 319.189Z" fill="#F5A921"/>
<path fill-rule="evenodd" clip-rule="evenodd" d="M142.266 244.401C142.266 244.401 143.055 241.182 142.994 237.004C142.931 232.728 141.055 228.588 138.76 224.98C136.466 221.373 132.916 218.406 128.728 217.576C122.527 216.348 101.554 214.869 107.018 224.406C111.449 232.141 134.353 243.277 142.266 244.401Z" fill="#CD9C00"/>
<path fill-rule="evenodd" clip-rule="evenodd" d="M103.44 222.81C120.658 231.015 140.743 233.022 159.239 228.382C163.856 227.225 168.701 225.427 171.365 221.476C174.026 217.526 173.053 210.946 168.527 209.474C166.232 208.728 163.756 209.434 161.392 209.917C150.237 212.195 138.433 209.237 128.649 203.408C118.864 197.578 110.922 189.061 104.197 179.861" fill="#FAC112"/>
<path fill-rule="evenodd" clip-rule="evenodd" d="M56.3857 288.551C56.3857 288.551 74.9941 288.82 74.9941 266.494L83.3694 289.55L78.5382 292.407L63.5187 300.392L56.3857 288.551Z" fill="#CD9C00"/>
<path fill-rule="evenodd" clip-rule="evenodd" d="M100.389 383.803L114.477 386.353V0L100.389 1.70013V383.803Z" fill="#492515"/>
<path fill-rule="evenodd" clip-rule="evenodd" d="M114.477 202.664L100.389 225.616V383.803L114.477 386.353V202.664Z" fill="#35170C"/>
<path fill-rule="evenodd" clip-rule="evenodd" d="M291.44 45.9035L114.478 0V386.353L291.44 345.55V45.9035Z" fill="#BA8B67"/>
<path fill-rule="evenodd" clip-rule="evenodd" d="M284.087 105.075C284.087 108.629 281.21 111.51 277.661 111.51C274.112 111.51 271.236 108.629 271.236 105.075C271.236 101.52 274.112 98.6387 277.661 98.6387C281.21 98.6387 284.087 101.52 284.087 105.075Z" fill="#A36E4A"/>
<path fill-rule="evenodd" clip-rule="evenodd" d="M214.751 340.509C214.751 344.063 211.873 346.944 208.325 346.944C204.776 346.944 201.898 344.063 201.898 340.509C201.898 336.954 204.776 334.072 208.325 334.072C211.873 334.072 214.751 336.954 214.751 340.509Z" fill="#A36E4A"/>
<path fill-rule="evenodd" clip-rule="evenodd" d="M249.755 235.834C249.755 239.388 246.877 242.27 243.328 242.27C239.78 242.27 236.903 239.388 236.903 235.834C236.903 232.279 239.78 229.398 243.328 229.398C246.877 229.398 249.755 232.279 249.755 235.834Z" fill="#A36E4A"/>
<path fill-rule="evenodd" clip-rule="evenodd" d="M135.304 312.151C135.304 315.706 132.427 318.588 128.878 318.588C125.33 318.588 122.453 315.706 122.453 312.151C122.453 308.597 125.33 305.715 128.878 305.715C132.427 305.715 135.304 308.597 135.304 312.151Z" fill="#A36E4A"/>
<path fill-rule="evenodd" clip-rule="evenodd" d="M146.206 152.472C146.206 156.026 143.329 158.907 139.78 158.907C136.231 158.907 133.354 156.026 133.354 152.472C133.354 148.916 136.231 146.035 139.78 146.035C143.329 146.035 146.206 148.916 146.206 152.472Z" fill="#A36E4A"/>
<path fill-rule="evenodd" clip-rule="evenodd" d="M241.216 342.079C241.216 345.633 238.338 348.514 234.789 348.514C231.241 348.514 228.364 345.633 228.364 342.079C228.364 338.524 231.241 335.643 234.789 335.643C238.338 335.643 241.216 338.524 241.216 342.079Z" fill="#A36E4A"/>
<path fill-rule="evenodd" clip-rule="evenodd" d="M264.553 147.295C264.553 150.104 262.281 152.38 259.476 152.38C256.673 152.38 254.399 150.104 254.399 147.295C254.399 144.488 256.673 142.211 259.476 142.211C262.281 142.211 264.553 144.488 264.553 147.295Z" fill="#A36E4A"/>
<path fill-rule="evenodd" clip-rule="evenodd" d="M176.707 285.384C176.707 288.193 174.433 290.469 171.629 290.469C168.825 290.469 166.552 288.193 166.552 285.384C166.552 282.576 168.825 280.299 171.629 280.299C174.433 280.299 176.707 282.576 176.707 285.384Z" fill="#A36E4A"/>
<path fill-rule="evenodd" clip-rule="evenodd" d="M163.789 141.306C163.789 144.115 161.515 146.391 158.711 146.391C155.907 146.391 153.634 144.115 153.634 141.306C153.634 138.497 155.907 136.221 158.711 136.221C161.515 136.221 163.789 138.497 163.789 141.306Z" fill="#A36E4A"/>
<path fill-rule="evenodd" clip-rule="evenodd" d="M281.418 155.011C281.418 156.416 280.282 157.553 278.879 157.553C277.477 157.553 276.341 156.416 276.341 155.011C276.341 153.607 277.477 152.469 278.879 152.469C280.282 152.469 281.418 153.607 281.418 155.011Z" fill="#A36E4A"/>
<path fill-rule="evenodd" clip-rule="evenodd" d="M225.867 321.494C225.867 322.898 224.731 324.036 223.329 324.036C221.926 324.036 220.79 322.898 220.79 321.494C220.79 320.09 221.926 318.951 223.329 318.951C224.731 318.951 225.867 320.09 225.867 321.494Z" fill="#A36E4A"/>
<path fill-rule="evenodd" clip-rule="evenodd" d="M154.367 298.836C154.367 300.24 153.231 301.378 151.829 301.378C150.427 301.378 149.29 300.24 149.29 298.836C149.29 297.431 150.427 296.293 151.829 296.293C153.231 296.293 154.367 297.431 154.367 298.836Z" fill="#A36E4A"/>
<path fill-rule="evenodd" clip-rule="evenodd" d="M166.245 162.117C166.245 163.521 165.109 164.66 163.707 164.66C162.305 164.66 161.169 163.521 161.169 162.117C161.169 160.713 162.305 159.574 163.707 159.574C165.109 159.574 166.245 160.713 166.245 162.117Z" fill="#A36E4A"/>
<path fill-rule="evenodd" clip-rule="evenodd" d="M172.214 111.507C172.214 112.912 171.077 114.05 169.676 114.05C168.273 114.05 167.137 112.912 167.137 111.507C167.137 110.103 168.273 108.965 169.676 108.965C171.077 108.965 172.214 110.103 172.214 111.507Z" fill="#A36E4A"/>
<path fill-rule="evenodd" clip-rule="evenodd" d="M114.296 295.96V305.236C114.296 305.236 103.497 307.36 100.208 315.582V294.629L114.296 295.96Z" fill="#190803"/>
<path fill-rule="evenodd" clip-rule="evenodd" d="M194.635 162.351C198.948 165.793 204.082 168.299 209.542 169.079C223.639 171.089 237.308 161.03 243.774 148.324C255.678 124.933 239.407 81.0153 207.415 92.4746C179.653 102.418 171.626 143.989 194.635 162.351Z" fill="#966544"/>
<path fill-rule="evenodd" clip-rule="evenodd" d="M196.99 164.714C201.304 168.156 206.438 170.663 211.897 171.442C225.996 173.452 239.663 163.393 246.129 150.687C258.033 127.296 241.762 83.3785 209.77 94.8379C182.009 104.781 173.982 146.352 196.99 164.714Z" fill="white"/>
<path fill-rule="evenodd" clip-rule="evenodd" d="M243.63 144.258C243.63 157.929 233.553 169.012 221.121 169.012C208.689 169.012 198.611 157.929 198.611 144.258C198.611 130.586 208.689 119.502 221.121 119.502C233.553 119.502 243.63 130.586 243.63 144.258Z" fill="#FF159B"/>
<path fill-rule="evenodd" clip-rule="evenodd" d="M237.737 144.258C237.737 154.348 230.3 162.528 221.124 162.528C211.949 162.528 204.51 154.348 204.51 144.258C204.51 134.167 211.949 125.986 221.124 125.986C230.3 125.986 237.737 134.167 237.737 144.258Z" fill="#FF4DBB"/>
<path fill-rule="evenodd" clip-rule="evenodd" d="M230.315 136.928C226.825 132.647 221.643 132.56 217.49 134.824L223.33 146.272C223.33 146.272 215.796 144.595 210.986 143.356C210.873 143.916 210.802 144.49 210.777 145.074C210.694 147.102 211.124 149.126 211.811 151.036C212.553 153.099 213.625 155.089 215.236 156.574C218.281 159.379 223.076 159.947 226.828 158.202C230.58 156.458 233.192 152.615 233.755 148.51C234.317 144.405 232.931 140.138 230.315 136.928Z" fill="#0C0C0C"/>
<path fill-rule="evenodd" clip-rule="evenodd" d="M218.057 151.144C218.057 153.836 215.878 156.019 213.19 156.019C210.502 156.019 208.322 153.836 208.322 151.144C208.322 148.452 210.502 146.27 213.19 146.27C215.878 146.27 218.057 148.452 218.057 151.144Z" fill="white"/>
<path fill-rule="evenodd" clip-rule="evenodd" d="M228.311 137.907C228.311 139.447 229.558 140.695 231.095 140.695C232.633 140.695 233.88 139.447 233.88 137.907C233.88 136.366 232.633 135.117 231.095 135.117C229.558 135.117 228.311 136.366 228.311 137.907Z" fill="white"/>
<path fill-rule="evenodd" clip-rule="evenodd" d="M214.437 82.5723L215.613 98.6333L216.938 96.718L217.968 98.6333L218.998 96.8651L220.322 98.6333L221.352 82.5723L219.733 84.9298L218.998 82.5723L217.893 85.2246L216.79 82.5723L216.056 84.6354L214.437 82.5723Z" fill="#FFEECC"/>
<path fill-rule="evenodd" clip-rule="evenodd" d="M213.331 167.742L214.508 183.804L215.833 181.888L216.862 183.804L217.891 182.035L219.216 183.804L220.246 167.742L218.628 170.1L217.891 167.742L216.788 170.395L215.685 167.742L214.949 169.805L213.331 167.742Z" fill="#FFEECC"/>
<path fill-rule="evenodd" clip-rule="evenodd" d="M189.593 141.305L174.771 147.546L177.005 148.191L175.522 149.78L177.524 150.194L176.272 152.015L191.8 147.868L189.052 147.085L191.048 145.634L188.187 145.433L190.344 143.54L188.158 143.499L189.593 141.305Z" fill="#FFEECC"/>
<path fill-rule="evenodd" clip-rule="evenodd" d="M255.415 117.855L244.062 122.636L245.774 123.131L244.637 124.348L246.171 124.664L245.212 126.059L257.104 122.883L255 122.283L256.529 121.172L254.337 121.018L255.991 119.568L254.316 119.537L255.415 117.855Z" fill="#FFEECC"/>
<path fill-rule="evenodd" clip-rule="evenodd" d="M135.312 57.6099C132.713 64.41 132.32 72.4112 135.922 78.7361C139.281 84.6317 145.725 88.3308 152.393 89.5421C156.288 90.2498 160.352 90.1914 164.157 89.0991C173.004 86.5604 179.796 78.0456 180.313 68.8433C180.83 59.6412 175.036 50.4165 166.531 46.8991C154.581 41.9569 140.124 45.0235 135.312 57.6099Z" fill="#966544"/>
<path fill-rule="evenodd" clip-rule="evenodd" d="M136.676 59.3826L128.878 53.0467H136.676L134.91 43.3216L142.91 47.5582L144.62 39.9434L150.683 50.8364L136.676 59.3826Z" fill="#966544"/>
<path fill-rule="evenodd" clip-rule="evenodd" d="M138.442 58.9393L130.645 52.6033H138.442L136.677 42.8782L144.676 47.1148L146.387 39.5L152.45 50.393L138.442 58.9393Z" fill="#0C0C0C"/>
<path fill-rule="evenodd" clip-rule="evenodd" d="M136.636 58.6477C134.036 65.4472 133.643 73.4489 137.245 79.7737C140.603 85.6698 147.046 89.3694 153.714 90.581C157.61 91.2892 161.674 91.2308 165.479 90.139C174.326 87.6012 181.118 79.0864 181.636 69.8841C182.154 60.6824 176.362 51.4567 167.856 47.9389C155.906 42.9959 141.449 46.0616 136.636 58.6477Z" fill="white"/>
<path fill-rule="evenodd" clip-rule="evenodd" d="M156.818 39.5L157.574 49.8145L158.424 48.5842L159.086 49.8145L159.747 48.6793L160.598 49.8145L161.26 39.5L160.22 41.0141L159.747 39.5L159.039 41.2033L158.33 39.5L157.858 40.8249L156.818 39.5Z" fill="#FFEECC"/>
<path fill-rule="evenodd" clip-rule="evenodd" d="M142.773 80.832L135.71 88.3765L137.189 88.1696L136.734 89.4901L138.016 89.208L137.758 90.604L145.781 84.1032L143.965 84.3636L144.757 82.9896L143.026 83.6218L143.796 81.946L142.504 82.495L142.773 80.832Z" fill="#FFEECC"/>
<path fill-rule="evenodd" clip-rule="evenodd" d="M169.677 84.2135L177.852 90.5314L177.505 89.0762L178.862 89.4033L178.458 88.1522L179.87 88.2756L172.639 80.9004L173.073 82.6858L171.631 82.0285L172.425 83.6937L170.686 83.0859L171.356 84.3223L169.677 84.2135Z" fill="#FFEECC"/>
<path fill-rule="evenodd" clip-rule="evenodd" d="M157.513 84.8612C162.492 86.453 168.382 84.6715 171.6 80.5468C173.142 78.5699 174.075 76.1602 174.512 73.6901C175.202 69.7846 174.578 65.4789 172.039 62.4354C168.116 57.7338 159.179 56.7976 154.031 60.1328C148.994 63.3965 147.173 71.9665 149.35 77.2022C150.825 80.7479 153.838 83.6866 157.513 84.8612Z" fill="#34DAE2"/>
<path fill-rule="evenodd" clip-rule="evenodd" d="M155.112 62.0447C154.666 63.3506 154.892 64.7762 154.855 66.1558C154.819 67.5351 154.376 69.0853 153.14 69.6958C152.482 70.0211 151.707 70.0184 151.021 70.2828C149.293 70.9498 148.632 73.3317 149.508 74.9673C150.383 76.6033 152.415 77.4029 154.252 77.1594C155.018 77.0577 155.852 76.8141 156.521 77.2013C157.771 77.9245 157.155 79.8143 157.351 81.247C157.521 82.5029 158.526 83.6022 159.759 83.8839C160.993 84.1654 162.373 83.6107 163.07 82.5528C164.119 80.961 163.902 78.2985 165.715 77.7105C166.615 77.4184 167.569 77.8635 168.507 77.9966C169.896 78.1933 171.399 77.6196 172.201 76.468C173.003 75.3165 172.99 73.6204 172.073 72.5576C170.949 71.2566 168.635 70.7687 168.529 69.0526C168.452 67.8126 169.665 66.9294 170.254 65.8367C171.085 64.2957 170.48 62.1442 168.968 61.2641C168.245 60.8428 167.31 60.7111 166.568 61.0983C165.696 61.5541 165.302 62.5606 164.85 63.4355C164.4 64.3107 163.644 65.2204 162.662 65.1555C161.443 65.0745 160.883 63.6352 160.536 62.4607C159.742 59.7646 156.163 58.9636 155.112 62.0447Z" fill="#1AC1C1"/>
<path fill-rule="evenodd" clip-rule="evenodd" d="M155.907 72.0088C155.907 68.8552 158.46 66.2988 161.608 66.2988C164.757 66.2988 167.31 68.8552 167.31 72.0088C167.31 75.1624 164.757 77.7192 161.608 77.7192C158.46 77.7192 155.907 75.1624 155.907 72.0088Z" fill="#0C0C0C"/>
<path fill-rule="evenodd" clip-rule="evenodd" d="M157.635 69.9349C157.635 71.3694 156.474 72.532 155.042 72.532C153.609 72.532 152.449 71.3694 152.449 69.9349C152.449 68.5005 153.609 67.3379 155.042 67.3379C156.474 67.3379 157.635 68.5005 157.635 69.9349Z" fill="white"/>
<path fill-rule="evenodd" clip-rule="evenodd" d="M168.778 74.2975C168.778 75.2741 167.988 76.0657 167.012 76.0657C166.037 76.0657 165.247 75.2741 165.247 74.2975C165.247 73.3211 166.037 72.5293 167.012 72.5293C167.988 72.5293 168.778 73.3211 168.778 74.2975Z" fill="white"/>
<path fill-rule="evenodd" clip-rule="evenodd" d="M245.459 72.619C246.073 79.4372 251.539 85.5155 258.236 86.8863C264.932 88.2571 272.316 84.8422 275.658 78.871C279.001 72.8998 278.077 64.8425 273.506 59.7532C269.416 55.1987 261.353 52.5499 253.894 56.0863C247.519 59.1091 244.896 66.3769 245.459 72.619Z" fill="#966544"/>
<path fill-rule="evenodd" clip-rule="evenodd" d="M247.308 73.7089C247.923 80.5266 253.388 86.6053 260.085 87.9761C266.782 89.3469 274.165 85.9321 277.508 79.9608C280.851 73.9896 279.926 65.9323 275.356 60.8429C271.265 56.2885 263.201 53.6397 255.743 57.1761C249.369 60.1989 246.746 67.4663 247.308 73.7089Z" fill="white"/>
<path fill-rule="evenodd" clip-rule="evenodd" d="M256.186 75.6587C256.562 79.8316 259.907 83.5519 264.005 84.391C268.104 85.2299 272.623 83.1395 274.669 79.4851C276.715 75.8306 276.15 70.8991 273.351 67.7844C270.848 64.9968 265.913 63.3754 261.348 65.5396C257.447 67.3897 255.841 71.838 256.186 75.6587Z" fill="#FFD524"/>
<path fill-rule="evenodd" clip-rule="evenodd" d="M269.893 70.8194C268.272 70.2673 266.42 70.5232 264.921 71.2924C265.36 72.8219 265.854 74.4376 266.018 74.5605C266.198 74.6958 264.158 74.3523 262.295 74.0198C261.441 76.2429 261.906 78.9828 263.629 80.625C264.948 81.8818 266.87 82.4105 268.68 82.2044C269.876 82.0683 271.061 81.6143 271.936 80.7846C272.793 79.9725 273.307 78.8382 273.486 77.6703C274.003 74.2931 273.094 71.9082 269.893 70.8194Z" fill="black"/>
<path fill-rule="evenodd" clip-rule="evenodd" d="M266.4 82.011C266.4 82.7776 265.78 83.3995 265.014 83.3995C264.249 83.3995 263.628 82.7776 263.628 82.011C263.628 81.2445 264.249 80.623 265.014 80.623C265.78 80.623 266.4 81.2445 266.4 82.011Z" fill="white"/>
<path fill-rule="evenodd" clip-rule="evenodd" d="M274.049 72.2549C274.049 73.5257 273.021 74.5563 271.752 74.5563C270.483 74.5563 269.454 73.5257 269.454 72.2549C269.454 70.984 270.483 69.9531 271.752 69.9531C273.021 69.9531 274.049 70.984 274.049 72.2549Z" fill="white"/>
<path fill-rule="evenodd" clip-rule="evenodd" d="M264.135 50.0684L264.776 58.8201L265.498 57.7764L266.06 58.8201L266.621 57.8569L267.342 58.8201L267.903 50.0684L267.021 51.3529L266.621 50.0684L266.019 51.5138L265.418 50.0684L265.017 51.1925L264.135 50.0684Z" fill="#FFEECC"/>
<path fill-rule="evenodd" clip-rule="evenodd" d="M262.251 86.2266L262.893 94.9783L263.615 93.9346L264.176 94.9783L264.737 94.0147L265.458 94.9783L266.019 86.2266L265.138 87.5112L264.737 86.2266L264.136 87.6717L263.534 86.2266L263.134 87.3503L262.251 86.2266Z" fill="#FFEECC"/>
<path fill-rule="evenodd" clip-rule="evenodd" d="M285.331 73.0439L276.752 71.2637L277.556 72.2446L276.4 72.4992L277.171 73.3038L276.049 73.7348L284.298 76.6731L283.306 75.472L284.65 75.4381L283.427 74.4624L284.979 74.2794L284.009 73.5853L285.331 73.0439Z" fill="#FFEECC"/>
<path fill-rule="evenodd" clip-rule="evenodd" d="M240.705 70.0996L249.44 70.7861L248.519 69.9144L249.633 69.5162L248.768 68.815L249.827 68.2461L241.274 66.3691L242.409 67.4363L241.081 67.6392L242.416 68.4526L240.899 68.8296L241.948 69.3963L240.705 70.0996Z" fill="#FFEECC"/>
<path fill-rule="evenodd" clip-rule="evenodd" d="M221.587 35.4391C226.35 38.2922 230.729 41.7871 234.57 45.8C237.87 49.2484 240.925 53.5323 240.693 58.3038C240.653 59.1084 240.509 59.9359 240.065 60.6083C238.778 62.5569 235.805 62.25 233.69 61.2629C229.155 59.1455 225.681 54.8722 224.532 49.9942C226.208 55.7285 226.353 61.9039 224.948 67.7107C224.762 68.4741 224.535 69.2641 224 69.8387C222.949 70.9669 221.025 70.84 219.773 69.9422C218.522 69.044 217.805 67.586 217.241 66.1515C215.401 61.4831 214.633 56.3946 215.014 51.3901C214.911 56.2288 214.138 61.0521 212.726 65.6804C211.901 68.3826 210.083 71.534 207.277 71.2435C205.442 71.0534 204.122 69.3798 203.345 67.7036C200.502 61.5812 202.048 54.4036 203.818 47.8896C201.947 53.6477 198.516 58.8886 193.988 62.9016C192.25 64.4426 189.635 65.8324 187.758 64.4642C187.035 63.9374 186.61 63.0988 186.292 62.2633C184.376 57.2358 185.521 51.4299 188.19 46.7597C190.859 42.0894 197.522 37.4209 201.656 33.9844L221.587 35.4391Z" fill="#966544"/>
<path fill-rule="evenodd" clip-rule="evenodd" d="M203.911 36.8418C203.911 36.8418 194.201 53.7153 176.325 48.977V53.2715C176.325 53.2715 195.966 59.1287 206.559 37.7997L203.911 36.8418Z" fill="#966544"/>
<path fill-rule="evenodd" clip-rule="evenodd" d="M210.679 38.0172C210.679 38.0172 212.703 66.9416 195.085 84.2209L198.174 86.787C198.174 86.787 213.695 67.1042 213.328 44.659C212.961 22.2139 213.334 46.7632 213.334 46.7632L210.679 38.0172Z" fill="#966544"/>
<path fill-rule="evenodd" clip-rule="evenodd" d="M218.474 39.3422C218.474 39.3422 216.614 72.428 235.088 84.7843L237.012 82.8316C237.012 82.8316 218.033 68.407 221.563 39.1211L218.474 39.3422Z" fill="#966544"/>
<path fill-rule="evenodd" clip-rule="evenodd" d="M224.209 34.4878C228.973 37.3409 233.352 40.8357 237.193 44.8487C240.492 48.2975 243.548 52.581 243.315 57.3525C243.276 58.1575 243.131 58.9846 242.687 59.657C241.4 61.6055 238.428 61.2988 236.314 60.3116C231.777 58.1946 228.304 53.9209 227.155 49.0433C228.83 54.7771 228.976 60.9526 227.57 66.7594C227.385 67.5228 227.157 68.3127 226.622 68.8875C225.571 70.016 223.648 69.8887 222.395 68.9909C221.144 68.0931 220.427 66.6347 219.863 65.2002C218.023 60.5318 217.255 55.4433 217.636 50.4392C217.533 55.2775 216.761 60.1008 215.348 64.729C214.523 67.4312 212.707 70.5831 209.9 70.2922C208.064 70.1022 206.744 68.4286 205.967 66.7523C203.125 60.6299 204.67 53.4527 206.441 46.9382C204.57 52.6964 201.138 57.9373 196.611 61.9503C194.872 63.4913 192.258 64.8811 190.38 63.5129C189.659 62.9865 189.233 62.1479 188.914 61.312C186.998 56.2845 188.143 50.4786 190.813 45.8084C193.481 41.1381 197.521 37.4209 201.655 33.9844L224.209 34.4878Z" fill="#FF981D"/>
<path fill-rule="evenodd" clip-rule="evenodd" d="M206.56 35.1431L205.607 34.0742L205.236 34.701C204.002 36.5563 198.046 40.9035 192.01 43.9125C191.588 44.5283 191.187 45.1592 190.815 45.8103C190.148 46.9773 189.576 48.215 189.123 49.4939C194.894 47.8596 201.843 44.6384 206.56 35.1431Z" fill="#D37105"/>
<path fill-rule="evenodd" clip-rule="evenodd" d="M215.644 35.8086H213.326C213.326 35.8086 211.297 49.6881 205.166 64.6357C205.382 65.3545 205.645 66.0621 205.967 66.7561C206.308 67.4909 206.753 68.2247 207.299 68.8334C210.892 60.7956 216.924 50.696 215.644 35.8086Z" fill="#D37105"/>
<path fill-rule="evenodd" clip-rule="evenodd" d="M224.214 36.9102H221.124C221.124 36.9102 216.953 55.0772 224.653 69.6972C225.398 69.6857 226.114 69.4359 226.623 68.8882C226.888 68.6035 227.078 68.2662 227.224 67.9056C223.044 60.6413 222.49 51.2123 224.214 36.9102Z" fill="#D37105"/>
<path fill-rule="evenodd" clip-rule="evenodd" d="M206.558 34.625C206.558 34.625 196.848 51.4985 178.973 46.7602V51.0547C178.973 51.0547 198.613 56.9119 209.206 35.5829L206.558 34.625Z" fill="#FFD91F"/>
<path fill-rule="evenodd" clip-rule="evenodd" d="M213.327 35.8086C213.327 35.8086 215.349 64.7329 197.731 82.0123L200.822 84.5784C200.822 84.5784 218.463 68.5765 215.645 35.8086H213.327Z" fill="#FFD91F"/>
<path fill-rule="evenodd" clip-rule="evenodd" d="M221.122 37.1313C221.122 37.1313 219.262 70.217 237.737 82.5732L239.659 80.6207C239.659 80.6207 220.68 66.1961 224.212 36.9102L221.122 37.1313Z" fill="#FFD91F"/>
<path fill-rule="evenodd" clip-rule="evenodd" d="M193.906 37.1328H234.216L232.303 35.9539L234.216 34.7754L231.715 33.9863L234.216 32.7123L193.906 32.123L196.848 33.9863L192.435 34.6277L196.406 35.5118L193.906 37.1328Z" fill="#FFEECC"/>
<path fill-rule="evenodd" clip-rule="evenodd" d="M158.489 227.678C158.489 227.678 139.473 227.514 126.975 249.026C114.478 270.54 114.478 267.887 114.478 267.887L114.528 284.915C114.528 284.915 140.873 270.574 158.489 227.678Z" fill="#966544"/>
<path fill-rule="evenodd" clip-rule="evenodd" d="M170.655 270.322C163.978 269.448 157.607 273.594 153.085 278.593C148.564 283.591 145.192 289.584 140.373 294.294C135.716 298.843 129.774 302.06 123.423 303.469C115.267 305.279 106.207 304.281 99.1151 308.699C91.1882 313.639 88.3272 323.674 82.4539 330.941C74.8519 340.346 60.629 344.609 49.9882 338.878C41.585 334.351 38.5868 324.286 41.8887 316.023C42.42 314.695 44.37 314.891 44.5646 316.309C45.3366 321.929 50.5323 327.34 56.504 327.71C64.7977 328.223 72.1901 321.382 74.8131 313.486C76.3649 308.813 76.6125 303.795 78.032 299.08C81.1078 288.863 90.0256 280.64 100.445 278.411C104.293 277.588 108.31 277.52 112.029 276.236C119.565 273.634 124.603 266.51 127.98 259.278C131.356 252.046 133.646 244.22 138.25 237.703C142.853 231.186 150.684 226.061 158.49 227.672C164.057 242.46 165.089 255.533 170.655 270.322Z" fill="#FF0867"/>
<path fill-rule="evenodd" clip-rule="evenodd" d="M170.654 270.322C167.321 261.464 165.613 253.22 163.583 244.855C154.543 247.344 146.452 253.093 142.052 261.363C137.111 270.65 136.195 282.99 127.368 288.696C118.531 294.407 106.148 290.287 96.8203 295.153C82.9345 302.396 83.8675 324.298 71.1995 333.514C64.737 338.214 55.2287 338.309 48.652 333.773C45.1246 331.341 42.6658 328 40.5808 322.728C40.5252 329.161 43.7771 335.532 49.9876 338.877C60.6284 344.609 74.8513 340.346 82.4529 330.94C88.3266 323.672 91.1876 313.638 99.1144 308.699C106.207 304.28 115.267 305.278 123.422 303.469C129.774 302.06 135.716 298.843 140.372 294.293C145.191 289.583 148.564 283.591 153.084 278.591C157.606 273.593 163.978 269.448 170.654 270.322Z" fill="#FFD524"/>
<path fill-rule="evenodd" clip-rule="evenodd" d="M128.288 291.017C128.288 293.377 126.378 295.29 124.022 295.29C121.666 295.29 119.756 293.377 119.756 291.017C119.756 288.657 121.666 286.744 124.022 286.744C126.378 286.744 128.288 288.657 128.288 291.017Z" fill="#FF981D"/>
<path fill-rule="evenodd" clip-rule="evenodd" d="M142.561 276.799C142.561 277.979 141.606 278.935 140.428 278.935C139.249 278.935 138.294 277.979 138.294 276.799C138.294 275.618 139.249 274.662 140.428 274.662C141.606 274.662 142.561 275.618 142.561 276.799Z" fill="#FF981D"/>
<path fill-rule="evenodd" clip-rule="evenodd" d="M158.597 255.802C158.597 259.545 155.568 262.58 151.83 262.58C148.093 262.58 145.062 259.545 145.062 255.802C145.062 252.058 148.093 249.023 151.83 249.023C155.568 249.023 158.597 252.058 158.597 255.802Z" fill="#FF981D"/>
<path fill-rule="evenodd" clip-rule="evenodd" d="M108.273 302.811C108.273 303.546 107.678 304.141 106.944 304.141C106.211 304.141 105.616 303.546 105.616 302.811C105.616 302.076 106.211 301.48 106.944 301.48C107.678 301.48 108.273 302.076 108.273 302.811Z" fill="#FF981D"/>
<path fill-rule="evenodd" clip-rule="evenodd" d="M94.4518 307.523C94.4518 310.128 92.3442 312.238 89.7437 312.238C87.1437 312.238 85.0361 310.128 85.0361 307.523C85.0361 304.919 87.1437 302.809 89.7437 302.809C92.3442 302.809 94.4518 304.919 94.4518 307.523Z" fill="#FF981D"/>
<path fill-rule="evenodd" clip-rule="evenodd" d="M85.0358 319.001C85.0358 319.851 84.3482 320.539 83.5003 320.539C82.6525 320.539 81.9648 319.851 81.9648 319.001C81.9648 318.151 82.6525 317.463 83.5003 317.463C84.3482 317.463 85.0358 318.151 85.0358 319.001Z" fill="#FF981D"/>
<path fill-rule="evenodd" clip-rule="evenodd" d="M109.458 291.901C109.458 293.772 107.943 295.29 106.074 295.29C104.205 295.29 102.69 293.772 102.69 291.901C102.69 290.029 104.205 288.512 106.074 288.512C107.943 288.512 109.458 290.029 109.458 291.901Z" fill="#FF981D"/>
<path fill-rule="evenodd" clip-rule="evenodd" d="M63.2074 336.775C63.2074 338.307 61.9681 339.547 60.4392 339.547C58.9103 339.547 57.6709 338.307 57.6709 336.775C57.6709 335.243 58.9103 334.002 60.4392 334.002C61.9681 334.002 63.2074 335.243 63.2074 336.775Z" fill="#FF981D"/>
<path fill-rule="evenodd" clip-rule="evenodd" d="M136.824 296.325C136.824 296.647 136.849 296.961 136.888 297.272C138.112 296.356 139.279 295.363 140.373 294.295C142.188 292.521 143.798 290.564 145.342 288.547C145.106 288.526 144.867 288.512 144.626 288.512C140.317 288.512 136.824 292.009 136.824 296.325Z" fill="#FF981D"/>
<path fill-rule="evenodd" clip-rule="evenodd" d="M160.809 265.822C156.18 265.822 152.428 269.581 152.428 274.217C152.428 275.665 152.793 277.026 153.437 278.215C157.36 274.005 162.593 270.489 168.184 270.225C166.767 267.603 163.996 265.822 160.809 265.822Z" fill="#FF981D"/>
<path fill-rule="evenodd" clip-rule="evenodd" d="M75.5693 334.007C75.5693 334.938 75.8417 335.805 76.3051 336.538C78.6192 334.981 80.7112 333.101 82.4528 330.945C82.6607 330.688 82.8642 330.426 83.065 330.162C82.2874 329.601 81.3348 329.266 80.303 329.266C77.6888 329.266 75.5693 331.388 75.5693 334.007Z" fill="#FF981D"/>
<path fill-rule="evenodd" clip-rule="evenodd" d="M44.6961 334.002C44.5596 334.002 44.4265 334.013 44.2939 334.03C45.2958 335.344 46.4968 336.532 47.8884 337.551C47.8999 337.441 47.9057 337.33 47.9057 337.217C47.9057 335.441 46.4691 334.002 44.6961 334.002Z" fill="#FF981D"/>
<path fill-rule="evenodd" clip-rule="evenodd" d="M54.4076 334.461C55.3906 332.431 56.3735 330.402 57.3559 328.372C56.8629 329.801 57.0823 331.456 57.9293 332.706C58.3857 330.953 58.9661 329.235 59.651 327.559C58.6214 327.723 57.5696 327.781 56.5019 327.714C55.971 327.682 55.4462 327.608 54.9303 327.498C54.0885 329.705 53.8802 332.157 54.4076 334.461Z" fill="#D8055B"/>
<path fill-rule="evenodd" clip-rule="evenodd" d="M72.0992 319.819C72.41 322.275 74.3144 324.451 76.704 325.08C75.131 322.427 74.0858 319.47 73.5955 316.424C72.6712 318.271 71.4893 320.004 70.1074 321.535C70.9438 323.272 72.2564 324.88 73.6202 326.245C72.8739 324.17 72.3628 322.009 72.0992 319.819Z" fill="#D8055B"/>
<path fill-rule="evenodd" clip-rule="evenodd" d="M114.529 284.909C114.052 281.554 113.628 277.912 115.308 274.971C115.132 278.391 116.826 281.851 119.633 283.806C118.543 280.493 117.982 277.008 117.976 273.519C118.309 277.554 121.036 281.3 124.772 282.849C122.778 278.974 121.231 274.83 120.629 270.516C118.221 273.031 115.404 275.052 112.108 276.207C112.051 276.795 112.017 277.383 112.022 277.974C112.041 280.495 112.772 283.106 114.529 284.909Z" fill="#D8055B"/>
<path fill-rule="evenodd" clip-rule="evenodd" d="M153.814 221.691L170.056 274.846L170.652 276.801L172.352 274.663L173.697 276.801L174.779 274.663L178.31 275.842L161.759 218.375L160.303 221.249L158.595 218.375L157.566 221.47L155.8 218.375V222.465L153.814 221.691Z" fill="#FFEECC"/>
<path fill-rule="evenodd" clip-rule="evenodd" d="M194.459 248.061C191.604 255.476 195.154 263.769 194.584 271.696C193.682 284.229 182.923 293.549 172.534 300.595C165.04 305.678 156.631 311.268 154.612 320.106C152.758 328.218 156.949 336.316 158.832 344.42C160.31 350.78 159.296 358.823 154.872 362.86C153.787 363.85 154.614 365.66 156.073 365.494C161.181 364.911 166.088 362.054 169.324 357.973C173.747 352.393 175.303 344.914 174.705 337.815C174.34 333.476 173.237 329.041 174.371 324.836C177.017 315.032 189.195 312.365 198.601 308.568C220.125 299.88 234.617 281.442 231.386 258.426" fill="#966544"/>
<path fill-rule="evenodd" clip-rule="evenodd" d="M194.472 247.902C192.214 255.521 196.412 263.506 196.472 271.453C196.567 284.019 186.581 294.165 176.784 302.014C169.716 307.679 161.778 313.92 160.466 322.891C159.262 331.124 164.082 338.863 166.602 346.792C168.58 353.014 168.206 361.112 164.117 365.489C163.113 366.563 164.083 368.3 165.523 368.018C170.568 367.03 175.233 363.792 178.135 359.467C182.102 353.553 183.059 345.973 181.901 338.944C181.192 334.647 179.74 330.315 180.538 326.033C182.397 316.051 194.326 312.422 203.401 307.888C224.167 297.514 237.151 277.982 232.105 255.296" fill="#3464EA"/>
<path fill-rule="evenodd" clip-rule="evenodd" d="M203.401 307.889C224.168 297.514 237.152 277.982 232.106 255.295L212.072 251.359C212.63 253.721 213.091 256.012 213.084 258.036C213.033 272.366 207.167 286.8 196.536 296.514C191.336 301.264 185.214 304.901 179.926 309.551C174.637 314.2 170.045 320.279 169.438 327.301C168.555 337.501 176.042 348.416 171.096 357.376C169.745 359.823 167.634 361.693 165.538 363.576C165.125 364.268 164.656 364.912 164.117 365.489C163.113 366.562 164.083 368.3 165.524 368.017C170.568 367.031 175.234 363.792 178.135 359.467C182.102 353.553 183.06 345.973 181.901 338.944C181.193 334.647 179.741 330.314 180.539 326.033C182.398 316.051 194.327 312.422 203.401 307.889Z" fill="#FFD524"/>
<path fill-rule="evenodd" clip-rule="evenodd" d="M171.627 327.368C171.627 328.321 170.856 329.093 169.904 329.093C168.952 329.093 168.182 328.321 168.182 327.368C168.182 326.414 168.952 325.643 169.904 325.643C170.856 325.643 171.627 326.414 171.627 327.368Z" fill="#FF981D"/>
<path fill-rule="evenodd" clip-rule="evenodd" d="M189.171 307.063C189.171 308.52 187.992 309.702 186.537 309.702C185.081 309.702 183.902 308.52 183.902 307.063C183.902 305.605 185.081 304.424 186.537 304.424C187.992 304.424 189.171 305.605 189.171 307.063Z" fill="#FF981D"/>
<path fill-rule="evenodd" clip-rule="evenodd" d="M180.013 315.318C180.013 317.637 178.136 319.518 175.819 319.518C173.504 319.518 171.627 317.637 171.627 315.318C171.627 312.998 173.504 311.117 175.819 311.117C178.136 311.117 180.013 312.998 180.013 315.318Z" fill="#FF981D"/>
<path fill-rule="evenodd" clip-rule="evenodd" d="M228.331 279.603C228.331 281.922 226.454 283.802 224.138 283.802C221.823 283.802 219.945 281.922 219.945 279.603C219.945 277.283 221.823 275.402 224.138 275.402C226.454 275.402 228.331 277.283 228.331 279.603Z" fill="#FF981D"/>
<path fill-rule="evenodd" clip-rule="evenodd" d="M180.015 334.489C180.015 336.154 178.667 337.504 177.005 337.504C175.343 337.504 173.995 336.154 173.995 334.489C173.995 332.823 175.343 331.475 177.005 331.475C178.667 331.475 180.015 332.823 180.015 334.489Z" fill="#FF981D"/>
<path fill-rule="evenodd" clip-rule="evenodd" d="M216.2 288.074C216.2 291.736 213.236 294.704 209.579 294.704C205.923 294.704 202.959 291.736 202.959 288.074C202.959 284.411 205.923 281.443 209.579 281.443C213.236 281.443 216.2 284.411 216.2 288.074Z" fill="#FF981D"/>
<path fill-rule="evenodd" clip-rule="evenodd" d="M228.332 261.989C228.332 264.592 226.224 266.704 223.625 266.704C221.023 266.704 218.916 264.592 218.916 261.989C218.916 259.384 221.023 257.273 223.625 257.273C226.224 257.273 228.332 259.384 228.332 261.989Z" fill="#FF981D"/>
<path fill-rule="evenodd" clip-rule="evenodd" d="M214.055 270.168C214.055 272.078 212.509 273.627 210.601 273.627C208.694 273.627 207.147 272.078 207.147 270.168C207.147 268.258 208.694 266.709 210.601 266.709C212.509 266.709 214.055 268.258 214.055 270.168Z" fill="#FF981D"/>
<path fill-rule="evenodd" clip-rule="evenodd" d="M200.379 307.031C200.379 307.781 200.489 308.503 200.677 309.193C201.603 308.761 202.516 308.327 203.401 307.885C207.303 305.935 210.931 303.663 214.215 301.106C212.745 299.701 210.759 298.832 208.566 298.832C204.044 298.832 200.379 302.503 200.379 307.031Z" fill="#FF981D"/>
<path fill-rule="evenodd" clip-rule="evenodd" d="M180.014 347.912C180.014 349.29 180.624 350.522 181.584 351.363C182.149 348.94 182.392 346.428 182.349 343.918C180.956 344.703 180.014 346.197 180.014 347.912Z" fill="#FF981D"/>
<path fill-rule="evenodd" clip-rule="evenodd" d="M199.388 288.531C197.803 286.91 196.64 284.877 196.045 282.689C195.475 285.566 195.552 288.572 196.268 291.416C195.53 291.28 195.275 290.367 195.19 289.621C194.719 285.441 194.661 280.627 195.935 276.605C196.798 280.726 197.599 284.676 199.388 288.531Z" fill="#1F55CC"/>
<path fill-rule="evenodd" clip-rule="evenodd" d="M185.339 294.102C184.462 296.755 184.081 299.572 184.222 302.363C183.986 301.199 183.312 300.059 183.076 298.895C181.665 300.771 180.557 302.875 179.812 305.102C179.993 300.787 182.562 297.404 185.339 294.102Z" fill="#1F55CC"/>
<path fill-rule="evenodd" clip-rule="evenodd" d="M185.382 250.02L238.935 260.642L240.903 261.033L239.843 258.565L242.318 258.391L240.973 256.458L243.635 253.941L186.208 241.582L188.017 244.182L184.737 244.328L186.935 246.661L183.437 246.754L186.975 248.657L185.382 250.02Z" fill="#FFEECC"/>
<path fill-rule="evenodd" clip-rule="evenodd" d="M133.074 182.772C130.039 180.826 125.935 181.504 122.814 183.306C119.692 185.107 117.253 187.859 114.572 190.269C111.889 192.679 108.708 194.853 105.112 195.056C102.319 195.212 99.5923 194.159 96.7971 194.051C94.1892 193.953 91.5653 194.73 89.4003 196.185C88.5026 196.79 88.8023 198.168 89.8673 198.355C92.9604 198.899 95.948 200.047 98.6037 201.727C102.032 203.895 105.34 207.067 109.388 206.831C113.486 206.592 116.446 202.959 120.029 200.954C125.558 197.863 133.133 199.075 137.425 203.74C136.851 196.516 133.992 189.959 133.074 182.772Z" fill="#99DB19"/>
<mask id="mask3_842_553" style="mask-type:luminance" maskUnits="userSpaceOnUse" x="88" y="181" width="50" height="26">
<path fill-rule="evenodd" clip-rule="evenodd" d="M122.814 183.306C119.692 185.109 117.253 187.86 114.572 190.269C111.889 192.679 108.709 194.854 105.111 195.056C102.319 195.213 99.5922 194.159 96.797 194.052C94.1895 193.953 91.5651 194.731 89.4006 196.187C88.5025 196.79 88.8022 198.169 89.8677 198.355C92.9607 198.9 95.9479 200.048 98.6036 201.727C102.032 203.895 105.341 207.067 109.388 206.832C113.486 206.593 116.445 202.958 120.029 200.954C125.558 197.863 133.134 199.076 137.425 203.74C136.851 196.516 133.992 189.96 133.074 182.772C131.794 181.952 130.324 181.598 128.819 181.598C126.753 181.598 124.619 182.264 122.814 183.306Z" fill="white"/>
</mask>
<g mask="url(#mask3_842_553)">
<path fill-rule="evenodd" clip-rule="evenodd" d="M98.7233 197.808C101.548 198.846 104.461 200.146 107.442 199.727C109.32 199.465 111.036 198.533 112.633 197.508C117.018 194.693 120.915 191.023 125.729 189.033C130.544 187.042 136.863 187.255 140.093 191.348C141.141 192.675 141.769 194.29 142.189 195.93C143.302 200.27 142.955 205.162 140.394 208.835C137.488 213.004 132.378 214.916 127.575 216.556C121.334 218.686 115.007 220.763 108.446 221.402C104.572 221.778 100.557 221.626 96.9534 220.153C92.6153 218.381 89.1846 214.792 86.9195 210.684C85.395 207.92 81.0435 199.267 84.0664 197.118C87.8732 194.412 94.8454 196.385 98.7233 197.808Z" fill="#FFD524"/>
</g>
<path fill-rule="evenodd" clip-rule="evenodd" d="M131.738 187.754C131.738 189.04 130.698 190.081 129.415 190.081C128.132 190.081 127.092 189.04 127.092 187.754C127.092 186.469 128.132 185.428 129.415 185.428C130.698 185.428 131.738 186.469 131.738 187.754Z" fill="#FF981D"/>
<path fill-rule="evenodd" clip-rule="evenodd" d="M122.704 195.631C122.704 197.611 121.101 199.218 119.123 199.218C117.145 199.218 115.542 197.611 115.542 195.631C115.542 193.651 117.145 192.045 119.123 192.045C121.101 192.045 122.704 193.651 122.704 195.631Z" fill="#FF981D"/>
<path fill-rule="evenodd" clip-rule="evenodd" d="M133.32 194.703C133.32 195.783 132.446 196.659 131.368 196.659C130.291 196.659 129.416 195.783 129.416 194.703C129.416 193.624 130.291 192.748 131.368 192.748C132.446 192.748 133.32 193.624 133.32 194.703Z" fill="#FF981D"/>
<path fill-rule="evenodd" clip-rule="evenodd" d="M113.148 202.608C113.148 203.777 112.202 204.724 111.035 204.724C109.868 204.724 108.922 203.777 108.922 202.608C108.922 201.439 109.868 200.492 111.035 200.492C112.202 200.492 113.148 201.439 113.148 202.608Z" fill="#FF981D"/>
<path fill-rule="evenodd" clip-rule="evenodd" d="M101.397 199.148C101.397 199.889 100.798 200.488 100.058 200.488C99.3191 200.488 98.7197 199.889 98.7197 199.148C98.7197 198.406 99.3191 197.807 100.058 197.807C100.798 197.807 101.397 198.406 101.397 199.148Z" fill="#FF981D"/>
<path fill-rule="evenodd" clip-rule="evenodd" d="M93.1506 197.237C93.1506 197.554 92.8942 197.811 92.5778 197.811C92.2613 197.811 92.0049 197.554 92.0049 197.237C92.0049 196.919 92.2613 196.662 92.5778 196.662C92.8942 196.662 93.1506 196.919 93.1506 197.237Z" fill="#FF981D"/>
<path fill-rule="evenodd" clip-rule="evenodd" d="M107.236 198.891C106.978 197.718 107.187 196.448 107.807 195.421C106.75 196.341 105.897 197.496 105.328 198.778C105.44 197.676 105.958 196.644 106.658 195.786C107.18 195.147 108.913 193.196 108.562 194.934C108.288 196.288 107.373 197.404 107.236 198.891Z" fill="#8ABA15"/>
<path fill-rule="evenodd" clip-rule="evenodd" d="M127.797 181.641C126.273 183.215 125.435 185.435 125.541 187.626C125.089 186.52 124.899 185.119 125.297 183.993C124.291 185.375 123.577 186.97 123.219 188.643C122.927 187.025 123.298 185.296 124.229 183.941C125.16 182.587 126.183 181.945 127.797 181.641Z" fill="#8ABA15"/>
<path fill-rule="evenodd" clip-rule="evenodd" d="M131.366 180.509C131.217 180.613 137.423 206.841 137.423 206.841L137.848 205.716L138.996 206.841V205.505L140.354 206.343L134.924 179.881C134.924 179.881 133.827 181.611 134.193 181.635C134.558 181.66 132.906 179.881 132.906 179.881V181.635L131.366 180.509Z" fill="#FFEECC"/>
<path fill-rule="evenodd" clip-rule="evenodd" d="M290.974 233.959L260.823 247.623C260.823 247.623 274.817 260.599 291.154 257.045L290.974 233.959Z" fill="#966544"/>
<path fill-rule="evenodd" clip-rule="evenodd" d="M369.755 167.85C370.962 175.35 370.98 183.205 368.426 190.358C365.872 197.512 360.475 203.884 353.306 206.364C344.422 209.439 334.098 206.352 325.562 210.292C313.959 215.648 311.157 230.925 302.213 240.063C291.764 250.739 275.301 251.26 260.823 247.619C263.418 232.405 265.333 217.075 266.559 201.69C274.805 196.575 283.052 203.868 289.783 196.874C297.199 189.169 302.708 178.226 310.545 178.073C321.781 177.852 332.022 186.158 343.229 185.319C350.691 184.761 357.546 179.905 361.102 173.311C363.73 168.433 364.615 162.732 363.946 157.214C363.728 155.409 366.155 154.585 367.072 156.155C368.873 159.237 368.909 162.6 369.755 167.85Z" fill="#D134D1"/>
<path fill-rule="evenodd" clip-rule="evenodd" d="M369.755 167.853C368.909 162.604 368.873 159.241 367.072 156.158C366.602 155.356 365.739 155.182 365.036 155.443C366.811 161.968 368.095 168.646 367.455 175.341C366.659 183.668 362.32 192.122 354.754 195.666C340.875 202.164 323.327 190.092 309.62 196.947C298.544 202.487 296.276 216.377 287.418 224.169C279.945 230.744 271.972 229.478 263.667 228.839C262.832 235.116 261.888 241.38 260.823 247.623C275.301 251.263 291.764 250.742 302.213 240.066C311.157 230.928 313.959 215.651 325.562 210.295C334.098 206.355 344.422 209.442 353.306 206.367C360.475 203.887 365.872 197.515 368.426 190.361C370.98 183.209 370.962 175.353 369.755 167.853Z" fill="#FFD524"/>
<path fill-rule="evenodd" clip-rule="evenodd" d="M290.287 224.17C291.424 227.393 289.737 230.929 286.52 232.068C283.302 233.207 279.77 231.518 278.633 228.295C277.496 225.072 279.183 221.536 282.401 220.396C285.618 219.258 289.15 220.946 290.287 224.17Z" fill="#FF981D"/>
<path fill-rule="evenodd" clip-rule="evenodd" d="M274.835 243.909C275.429 245.591 274.549 247.437 272.87 248.032C271.189 248.626 269.346 247.745 268.753 246.062C268.159 244.379 269.039 242.534 270.72 241.94C272.399 241.345 274.242 242.226 274.835 243.909Z" fill="#FF981D"/>
<path fill-rule="evenodd" clip-rule="evenodd" d="M310.849 222.878C311.691 225.262 310.442 227.878 308.063 228.72C305.683 229.563 303.071 228.314 302.229 225.929C301.388 223.546 302.637 220.93 305.017 220.087C307.396 219.244 310.008 220.494 310.849 222.878Z" fill="#FF981D"/>
<path fill-rule="evenodd" clip-rule="evenodd" d="M303.149 203.828C304.096 206.511 302.692 209.455 300.013 210.403C297.334 211.352 294.394 209.945 293.448 207.262C292.501 204.579 293.905 201.635 296.584 200.686C299.263 199.738 302.202 201.145 303.149 203.828Z" fill="#FF981D"/>
<path fill-rule="evenodd" clip-rule="evenodd" d="M318.241 202.647C318.8 204.23 317.971 205.967 316.391 206.526C314.81 207.085 313.076 206.256 312.517 204.673C311.958 203.089 312.788 201.353 314.367 200.794C315.948 200.235 317.682 201.064 318.241 202.647Z" fill="#FF981D"/>
<path fill-rule="evenodd" clip-rule="evenodd" d="M357.477 193.856C358.134 195.72 357.159 197.766 355.299 198.424C353.437 199.083 351.396 198.106 350.737 196.241C350.08 194.378 351.055 192.333 352.917 191.674C354.777 191.016 356.82 191.992 357.477 193.856Z" fill="#FF981D"/>
<path fill-rule="evenodd" clip-rule="evenodd" d="M295.294 236.272C291.304 237.685 289.213 242.07 290.623 246.067C290.761 246.461 290.937 246.831 291.131 247.186C295.235 245.649 299.006 243.335 302.211 240.06C302.706 239.556 303.179 239.028 303.638 238.489C301.635 236.172 298.354 235.189 295.294 236.272Z" fill="#FF981D"/>
<path fill-rule="evenodd" clip-rule="evenodd" d="M336.34 201.296C333.227 202.397 331.341 205.412 331.518 208.555C336.21 207.81 341.181 208.128 345.998 207.752C345.961 207.076 345.834 206.395 345.597 205.725C344.262 201.942 340.118 199.959 336.34 201.296Z" fill="#FF981D"/>
<path fill-rule="evenodd" clip-rule="evenodd" d="M366.999 185.848C367.369 186.897 368.193 187.653 369.17 187.981C369.777 185.773 370.163 183.511 370.364 181.224C369.95 181.212 369.527 181.272 369.112 181.419C367.307 182.057 366.361 184.041 366.999 185.848Z" fill="#FF981D"/>
<path fill-rule="evenodd" clip-rule="evenodd" d="M368.555 170.622C368.837 171.421 368.418 172.299 367.619 172.582C366.822 172.865 365.946 172.445 365.663 171.645C365.381 170.845 365.8 169.968 366.598 169.685C367.397 169.404 368.272 169.822 368.555 170.622Z" fill="#FF981D"/>
<path fill-rule="evenodd" clip-rule="evenodd" d="M288.51 197.826C283.131 204.926 278.664 212.717 275.251 220.947C276.261 216.951 275.809 214.081 276.819 210.085C272.838 213.559 270.017 218.343 268.9 223.512C269.085 217.572 271.716 211.882 275.503 207.308C279.291 202.735 283.369 200.793 288.51 197.826Z" fill="#AE1DB2"/>
<path fill-rule="evenodd" clip-rule="evenodd" d="M326.179 182.205C331.221 186.563 337.929 190.332 342.971 194.69C341.832 192.53 340.012 190.192 338.511 188.266C341.275 190.179 344.438 191.513 347.736 192.156C341.748 187.402 333.479 184.464 326.179 182.205Z" fill="#AE1DB2"/>
<path fill-rule="evenodd" clip-rule="evenodd" d="M263.27 195.479L254.266 257.629L256.627 254.562L258.561 258.716L259.824 255.662L262.186 259.039L263.466 255.109L264.557 258.199L271.732 195.882L269.688 198.715L269.281 194.245L267.554 196.892L265.906 192.223L264.336 198.501L263.27 195.479Z" fill="#FFEECC"/>
<path fill-rule="evenodd" clip-rule="evenodd" d="M282.681 339.477L261.5 302.491C256.457 298.244 250.412 295.074 243.906 294.09L234.791 296.188C240.135 300.388 243.041 305.954 245.268 312.382C247.498 318.809 248.345 325.636 248.749 332.428C249.107 338.41 247.381 343.929 248.706 349.775C249.068 351.368 249.609 352.943 250.308 354.439L282.571 346.439C282.887 344.137 282.916 341.786 282.681 339.477Z" fill="#966544"/>
<path fill-rule="evenodd" clip-rule="evenodd" d="M267.486 276.74C274.279 282.465 278.714 290.912 279.577 299.761C280.393 308.13 278.425 317.606 283.653 324.186C287.124 328.556 292.906 330.337 297.12 333.996C305.138 340.958 307.987 348.177 305.005 363.735C304.759 365.018 303.012 365.179 302.51 363.974C298.889 355.273 290.003 348.787 280.526 348.554C275.048 348.419 269.188 350.065 264.314 347.56C260.433 345.565 258.174 341.327 257.139 337.084C256.102 332.839 256.052 328.418 255.285 324.117C253.185 312.337 245.389 301.713 234.791 296.188L267.486 276.74Z" fill="#58BFED"/>
<path fill-rule="evenodd" clip-rule="evenodd" d="M304.431 362.508C303.023 352.7 295.028 344.695 285.748 341.262C282.083 339.906 278.163 339.133 274.795 337.15C268.673 333.546 265.37 326.533 263.677 319.626C261.645 311.334 260.826 290.724 250.684 286.738L234.791 296.19C245.389 301.716 253.185 312.341 255.285 324.12C256.052 328.421 256.102 332.843 257.139 337.087C258.174 341.331 260.433 345.569 264.313 347.563C269.188 350.068 275.048 348.423 280.526 348.556C290.003 348.791 298.889 355.277 302.51 363.976C302.892 364.894 303.993 365.018 304.606 364.462C304.582 363.806 304.523 363.152 304.431 362.508Z" fill="#FFD524"/>
<path fill-rule="evenodd" clip-rule="evenodd" d="M263.906 293.717C263.906 296.542 261.618 298.832 258.797 298.832C255.976 298.832 253.689 296.542 253.689 293.717C253.689 290.89 255.976 288.6 258.797 288.6C261.618 288.6 263.906 290.89 263.906 293.717Z" fill="#FF981D"/>
<path fill-rule="evenodd" clip-rule="evenodd" d="M269.698 335.182C269.698 338.593 272.459 341.358 275.865 341.358C279.27 341.358 282.031 338.593 282.031 335.182C282.031 331.77 279.27 329.006 275.865 329.006C272.459 329.006 269.698 331.77 269.698 335.182Z" fill="#FF981D"/>
<path fill-rule="evenodd" clip-rule="evenodd" d="M264.653 316.66C264.653 318.297 263.328 319.625 261.694 319.625C260.058 319.625 258.733 318.297 258.733 316.66C258.733 315.023 260.058 313.695 261.694 313.695C263.328 313.695 264.653 315.023 264.653 316.66Z" fill="#FF981D"/>
<path fill-rule="evenodd" clip-rule="evenodd" d="M296.759 351.587C296.759 352.961 297.871 354.075 299.244 354.075C300.616 354.075 301.728 352.961 301.728 351.587C301.728 350.212 300.616 349.098 299.244 349.098C297.871 349.098 296.759 350.212 296.759 351.587Z" fill="#FF981D"/>
<path fill-rule="evenodd" clip-rule="evenodd" d="M245.714 299.6C244.209 299.6 242.806 300.025 241.604 300.75C245.67 304.149 249.051 308.373 251.498 313.078C252.854 311.645 253.691 309.717 253.691 307.587C253.691 303.175 250.12 299.6 245.714 299.6Z" fill="#FF981D"/>
<path fill-rule="evenodd" clip-rule="evenodd" d="M258.736 330.128C258.736 328.132 257.395 326.453 255.567 325.936C255.935 328.59 256.125 331.274 256.526 333.92C257.844 333.171 258.736 331.755 258.736 330.128Z" fill="#FF981D"/>
<path fill-rule="evenodd" clip-rule="evenodd" d="M261.401 341.354C260.519 341.354 259.693 341.585 258.975 341.988C260.223 344.334 261.97 346.356 264.311 347.56C264.858 347.841 265.418 348.063 265.987 348.248C266.233 347.658 266.369 347.01 266.369 346.33C266.369 343.582 264.145 341.354 261.401 341.354Z" fill="#FF981D"/>
<path fill-rule="evenodd" clip-rule="evenodd" d="M286.159 345.553C283.729 345.553 281.583 346.737 280.244 348.557C280.338 348.558 280.432 348.556 280.526 348.558C285.18 348.673 289.691 350.297 293.506 352.95C293.506 352.937 293.507 352.926 293.507 352.914C293.507 348.848 290.217 345.553 286.159 345.553Z" fill="#FF981D"/>
<path fill-rule="evenodd" clip-rule="evenodd" d="M279.781 310.541C280.125 313.239 279.333 315.984 278.045 318.378C276.757 320.774 274.992 322.872 273.24 324.951C274.723 324.758 276.015 324.339 277.01 323.221C278.003 322.103 278.715 320.768 279.418 319.447C279.272 322.156 278.443 324.825 277.028 327.139C278.271 327.115 279.373 326.218 279.962 325.119C280.551 324.022 280.711 322.747 280.789 321.504C280.998 318.138 280.614 313.808 279.781 310.541Z" fill="#339EC4"/>
<path fill-rule="evenodd" clip-rule="evenodd" d="M296.068 333.697C297.345 337.232 297.765 341.073 297.285 344.8C298.265 342.622 298.541 340.139 298.163 337.779C299.734 341.125 300.9 344.661 301.628 348.286C302.696 342.575 300.64 337.274 296.068 333.697Z" fill="#339EC4"/>
<path fill-rule="evenodd" clip-rule="evenodd" d="M230.099 304.015L275.866 275.405H272.175L275.866 272.908H269.699L270.476 266.703L223.332 298.834H228.333C228.333 298.834 221.861 304.635 223.332 304.015C224.803 303.393 231.839 300.889 231.839 300.889L230.099 304.015Z" fill="#FFEECC"/>
<path fill-rule="evenodd" clip-rule="evenodd" d="M275.705 169.513C258.638 179.885 250.693 163.266 250.693 163.266L246.788 167.687C250.648 172.723 254.503 175.611 258.119 177.108C257.822 177.657 257.486 178.261 257.115 178.905C257.006 178.871 256.899 178.835 256.789 178.802C256.649 178.76 256.506 178.724 256.365 178.686C256.167 178.632 255.969 178.583 255.77 178.536C255.613 178.5 255.456 178.465 255.299 178.433C255.095 178.393 254.89 178.358 254.686 178.324C253.791 178.176 252.885 178.093 251.977 178.093C251.206 178.093 250.413 178.15 249.715 178.481C247.833 179.368 247.328 181.976 248.09 183.916C248.373 184.638 248.781 185.287 249.264 185.887C249.455 186.124 249.659 186.352 249.871 186.575C249.927 186.635 249.986 186.693 250.044 186.752C250.202 186.912 250.363 187.071 250.527 187.226C250.598 187.292 250.67 187.359 250.743 187.425C250.835 187.509 250.925 187.592 251.019 187.675C247.361 192.043 242.379 196.665 235.641 200.333L225.691 204.514C222.028 205.649 217.993 206.498 213.552 206.957C211.54 207.165 209.596 207.274 207.715 207.298C207.695 207.083 207.674 206.868 207.653 206.653C207.652 206.636 207.65 206.62 207.648 206.603C207.38 203.939 206.934 201.291 205.754 198.908C205.207 197.805 204.395 196.692 203.195 196.42C201.433 196.02 199.861 197.588 198.91 199.125C197.582 201.275 196.675 203.682 196.233 206.171C196.229 206.191 196.224 206.212 196.22 206.233C196.217 206.252 196.212 206.271 196.209 206.292C177.409 202.62 167.039 189.895 162.408 183.756C171.641 180.873 177.427 173.466 177.427 173.466L173.889 169.513C156.861 189.387 139.902 173.466 139.902 173.466L136.179 177.062C144.135 183.746 151.482 185.426 157.705 184.748C159.108 186.954 160.6 189.121 162.215 191.213C162.147 191.285 162.081 191.357 162.014 191.428C161.884 191.566 161.752 191.703 161.625 191.844C161.328 192.171 161.037 192.502 160.752 192.838C160.557 193.069 160.368 193.303 160.179 193.538C160.075 193.668 159.97 193.798 159.867 193.929C159.653 194.201 159.443 194.473 159.237 194.752C159.236 194.753 159.235 194.754 159.233 194.755C157.932 196.509 156.776 198.371 155.798 200.323C154.536 202.845 153.545 205.582 153.567 208.402C153.587 211.223 154.762 214.147 157.091 215.732C160.151 217.816 164.465 217.097 167.497 214.972C170.055 213.181 171.892 210.584 173.52 207.892C173.537 207.863 173.554 207.835 173.572 207.807C173.855 207.336 174.133 206.862 174.407 206.39C174.321 206.664 174.238 206.941 174.161 207.22C173.928 208.055 173.741 208.908 173.635 209.764C173.488 210.95 173.494 212.143 173.754 213.309C174.267 215.595 175.942 217.742 178.234 218.221C180.248 218.641 182.348 217.717 183.87 216.331C184.783 215.499 185.519 214.526 186.135 213.469C186.747 212.417 187.242 211.281 187.669 210.112C187.669 210.112 187.669 210.111 187.67 210.11C187.743 209.91 187.814 209.711 187.882 209.51C195.553 211.875 204.867 212.862 216.393 211.885C216.787 213.134 217.364 214.344 217.966 215.508C218.072 215.713 218.184 215.92 218.299 216.127C218.304 216.139 218.31 216.149 218.317 216.16C219.699 218.656 221.664 221.148 224.45 221.251C227.142 221.352 229.424 218.989 230.167 216.397C230.449 215.405 230.56 214.389 230.566 213.364V213.362C230.567 213.168 230.565 212.974 230.558 212.778C230.557 212.743 230.555 212.708 230.554 212.671C230.548 212.506 230.539 212.342 230.529 212.177C230.526 212.14 230.524 212.101 230.521 212.063C230.509 211.885 230.494 211.707 230.478 211.53C230.475 211.512 230.474 211.494 230.472 211.475C230.434 211.075 230.385 210.674 230.329 210.275L230.311 210.147C230.29 209.993 230.268 209.841 230.245 209.69C230.237 209.634 230.229 209.579 230.22 209.523C230.197 209.376 230.174 209.229 230.151 209.081C230.148 209.07 230.147 209.057 230.145 209.045C230.198 209.024 230.251 209.005 230.305 208.986C230.32 209.019 230.34 209.052 230.357 209.086C230.426 209.227 230.496 209.366 230.573 209.504C230.598 209.547 230.625 209.59 230.65 209.634C230.73 209.774 230.812 209.912 230.899 210.046C230.921 210.08 230.945 210.114 230.968 210.149C231.062 210.292 231.16 210.433 231.262 210.571C231.279 210.595 231.298 210.618 231.316 210.641C231.427 210.79 231.54 210.935 231.659 211.075C231.672 211.09 231.684 211.103 231.696 211.118C231.823 211.267 231.954 211.413 232.089 211.556C232.096 211.561 232.102 211.568 232.108 211.575C232.251 211.723 232.397 211.867 232.549 212.007C232.55 212.01 232.552 212.011 232.553 212.013C232.708 212.155 232.866 212.294 233.031 212.427C234.198 213.382 235.572 214.088 237.041 214.434C237.94 214.647 238.902 214.73 239.778 214.433C240.562 214.167 241.222 213.614 241.757 212.98C243.322 211.127 243.828 208.745 243.817 206.278C243.812 205.438 243.75 204.59 243.646 203.748C243.646 203.747 243.646 203.746 243.646 203.744C243.596 203.344 243.537 202.946 243.473 202.55C243.464 202.496 243.455 202.443 243.446 202.39C243.416 202.215 243.386 202.041 243.354 201.867C243.425 201.815 243.495 201.762 243.568 201.709C243.569 201.711 243.572 201.713 243.573 201.716C243.63 201.782 243.693 201.842 243.753 201.906C243.821 201.978 243.886 202.054 243.958 202.122C244.045 202.203 244.139 202.276 244.232 202.35C244.284 202.391 244.331 202.436 244.383 202.474C244.499 202.561 244.621 202.639 244.746 202.715C244.777 202.735 244.808 202.758 244.841 202.777C244.983 202.861 245.131 202.935 245.28 203.006C245.296 203.013 245.312 203.023 245.327 203.029C245.492 203.104 245.659 203.171 245.83 203.23C245.832 203.23 245.836 203.232 245.838 203.233C247.699 203.873 249.923 203.569 251.343 202.178C252.927 200.628 253.184 198.047 252.272 196.058C252.184 195.865 252.085 195.68 251.974 195.501C251.965 195.484 251.955 195.468 251.945 195.452C251.846 195.294 251.739 195.142 251.622 194.997C251.6 194.967 251.577 194.936 251.552 194.908C251.533 194.884 251.515 194.857 251.495 194.833C258.356 187.943 262.67 181.013 264.341 178.464C272.172 178.695 277.764 173.466 277.764 173.466L275.705 169.513Z" fill="#966544"/>
<path fill-rule="evenodd" clip-rule="evenodd" d="M186.983 206.768C186.172 212.143 185.358 217.595 186.002 222.992C186.645 228.39 188.937 233.818 193.275 237.086C195.123 238.478 197.353 239.451 199.666 239.479C203.064 239.522 206.252 237.496 208.293 234.773C210.334 232.052 211.372 228.707 212.036 225.367C213.076 220.143 213.285 214.754 212.655 209.464" fill="#966544"/>
<path fill-rule="evenodd" clip-rule="evenodd" d="M165.102 187.486C161.642 190.608 158.77 194.383 156.682 198.552C155.419 201.073 154.429 203.81 154.451 206.632C154.472 209.451 155.645 212.375 157.975 213.961C161.035 216.044 165.35 215.325 168.381 213.201C171.413 211.077 173.434 207.823 175.292 204.618C174.588 206.854 174.126 209.25 174.638 211.538C175.151 213.825 176.826 215.97 179.118 216.449C181.132 216.869 183.232 215.946 184.754 214.56C187.487 212.072 188.645 208.337 189.689 204.789" fill="white"/>
<path fill-rule="evenodd" clip-rule="evenodd" d="M165.1 187.486C162.648 189.697 160.5 192.242 158.709 195.018C160.765 200.53 168.039 204.958 173.517 207.535C174.139 206.581 174.722 205.597 175.29 204.618C174.944 205.716 174.659 206.851 174.517 207.994C175.319 208.354 176.07 208.668 176.741 208.935C179.873 210.182 183.136 211.098 186.463 211.643C186.557 211.658 186.753 211.677 187.017 211.698C188.243 209.593 188.992 207.151 189.687 204.789L165.1 187.486Z" fill="#D8D8D8"/>
<path fill-rule="evenodd" clip-rule="evenodd" d="M216.773 206.865C216.704 209.284 217.738 211.589 218.849 213.739C220.244 216.434 222.304 219.37 225.333 219.482C228.025 219.583 230.308 217.22 231.05 214.628C231.792 212.034 231.359 209.267 230.92 206.606C232.101 209.592 234.802 211.929 237.924 212.666C238.825 212.878 239.786 212.961 240.662 212.663C241.446 212.399 242.105 211.845 242.64 211.212C245.27 208.095 244.923 203.491 244.121 199.49C245.802 202.111 250.002 202.588 252.226 200.409C254.451 198.231 254.07 194.016 251.491 192.273" fill="white"/>
<path fill-rule="evenodd" clip-rule="evenodd" d="M251.491 192.273L216.773 206.865C216.704 209.284 217.738 211.589 218.849 213.739C219.067 214.158 219.302 214.583 219.552 215.002C222.071 214.762 224.962 213.588 226.797 213.07C228.362 212.628 229.916 212.138 231.449 211.594C231.458 209.935 231.19 208.251 230.92 206.606C231.546 208.187 232.599 209.583 233.914 210.658C235.902 209.854 237.844 208.942 239.712 207.879C241.453 206.889 243.127 205.761 244.7 204.508C244.692 202.829 244.446 201.11 244.121 199.49C244.932 200.753 246.327 201.513 247.804 201.723C249.964 199.529 251.802 197.043 253.155 194.289C252.788 193.484 252.234 192.775 251.491 192.273Z" fill="#D8D8D8"/>
<path fill-rule="evenodd" clip-rule="evenodd" d="M196.816 207.176C196.939 203.719 197.975 200.3 199.794 197.359C200.744 195.82 202.317 194.254 204.079 194.653C205.278 194.925 206.091 196.037 206.637 197.14C208.165 200.225 208.464 203.753 208.736 207.185" fill="white"/>
<path fill-rule="evenodd" clip-rule="evenodd" d="M199.222 201.792C198.68 201.775 198.199 201.778 197.762 201.797C197.207 203.536 196.881 205.35 196.816 207.175L208.738 207.183C208.572 205.117 208.397 203.017 207.951 200.998C204.788 201.511 199.878 201.814 199.222 201.792Z" fill="#D8D8D8"/>
<path fill-rule="evenodd" clip-rule="evenodd" d="M252.993 186.836C251.394 185.502 249.734 184.084 248.974 182.144C248.213 180.206 248.717 177.598 250.599 176.709C251.297 176.38 252.09 176.322 252.862 176.322C256.022 176.322 259.178 177.233 261.855 178.918" fill="white"/>
<path fill-rule="evenodd" clip-rule="evenodd" d="M251.924 181.892C251.339 182.609 250.685 183.364 250.146 184.114C250.961 185.126 251.989 185.996 252.991 186.833L261.853 178.917C259.821 177.638 257.514 176.807 255.139 176.48C253.797 178.81 252.311 181.416 251.924 181.892Z" fill="#D8D8D8"/>
<path fill-rule="evenodd" clip-rule="evenodd" d="M190.73 205.963C189.917 211.338 189.105 216.79 189.748 222.187C190.391 227.585 192.684 233.013 197.02 236.281C198.869 237.673 201.098 238.646 203.411 238.675C206.811 238.718 209.998 236.691 212.04 233.969C214.08 231.248 215.119 227.902 215.783 224.564C216.823 219.339 217.032 213.95 216.402 208.659" fill="#F94E63"/>
<path fill-rule="evenodd" clip-rule="evenodd" d="M197.706 206.316C198.911 207.715 199.267 209.636 199.56 211.46C200.73 218.741 201.627 226.068 202.249 233.416C203.97 232.02 204.752 229.784 205.29 227.63C207.105 220.344 207.01 212.588 205.015 205.35" fill="#E23452"/>
<path fill-rule="evenodd" clip-rule="evenodd" d="M196.189 221.805C196.92 222.536 196.92 223.723 196.189 224.454C195.459 225.186 194.274 225.186 193.543 224.454C192.812 223.723 192.812 222.536 193.543 221.805C194.274 221.073 195.459 221.073 196.189 221.805Z" fill="#E23452"/>
<path fill-rule="evenodd" clip-rule="evenodd" d="M213.333 224.251C213.333 225.289 212.493 226.13 211.456 226.13C210.42 226.13 209.579 225.289 209.579 224.251C209.579 223.213 210.42 222.371 211.456 222.371C212.493 222.371 213.333 223.213 213.333 224.251Z" fill="#E23452"/>
<path fill-rule="evenodd" clip-rule="evenodd" d="M199.124 227.547C199.124 228.334 198.488 228.971 197.704 228.971C196.92 228.971 196.284 228.334 196.284 227.547C196.284 226.762 196.92 226.125 197.704 226.125C198.488 226.125 199.124 226.762 199.124 227.547Z" fill="#E23452"/>
<path fill-rule="evenodd" clip-rule="evenodd" d="M210.138 228.973C210.138 229.758 209.502 230.396 208.718 230.396C207.933 230.396 207.297 229.758 207.297 228.973C207.297 228.188 207.933 227.551 208.718 227.551C209.502 227.551 210.138 228.188 210.138 228.973Z" fill="#E23452"/>
<path fill-rule="evenodd" clip-rule="evenodd" d="M209.577 234.283C209.577 234.76 209.191 235.147 208.716 235.147C208.239 235.147 207.854 234.76 207.854 234.283C207.854 233.807 208.239 233.42 208.716 233.42C209.191 233.42 209.577 233.807 209.577 234.283Z" fill="#E23452"/>
<path fill-rule="evenodd" clip-rule="evenodd" d="M210.441 215.001C210.441 215.478 210.055 215.864 209.579 215.864C209.104 215.864 208.718 215.478 208.718 215.001C208.718 214.525 209.104 214.139 209.579 214.139C210.055 214.139 210.441 214.525 210.441 215.001Z" fill="#E23452"/>
<path fill-rule="evenodd" clip-rule="evenodd" d="M197.147 231.421C197.147 231.898 196.761 232.284 196.285 232.284C195.81 232.284 195.424 231.898 195.424 231.421C195.424 230.944 195.81 230.559 196.285 230.559C196.761 230.559 197.147 230.944 197.147 231.421Z" fill="#E23452"/>
<path fill-rule="evenodd" clip-rule="evenodd" d="M278.648 171.698L276.588 167.745C259.522 178.118 251.577 161.498 251.577 161.498L247.672 165.919C251.532 170.956 255.387 173.844 259.003 175.341C254.691 183.305 242.916 202.244 214.435 205.189C184.381 208.297 169.188 189.803 163.291 181.989C172.525 179.105 178.311 171.698 178.311 171.698L174.772 167.745C157.744 187.619 140.785 171.698 140.785 171.698L137.062 175.294C145.019 181.978 152.366 183.659 158.589 182.98C169.06 199.443 184.386 213.787 220.24 209.829C246.431 206.938 261.699 182.075 265.225 176.696C273.056 176.927 278.648 171.698 278.648 171.698Z" fill="#332D38"/>
<path fill-rule="evenodd" clip-rule="evenodd" d="M154.228 180.936L153.446 172.174L152.739 173.232L152.16 172.194L151.613 173.168L150.874 172.215L150.451 180.997L151.315 179.694L151.738 180.975L152.317 179.518L152.943 180.956L153.327 179.823L154.228 180.936Z" fill="#FFEECC"/>
<path fill-rule="evenodd" clip-rule="evenodd" d="M266.905 172.097L266.123 163.334L265.416 164.392L264.837 163.354L264.289 164.33L263.551 163.376L263.128 172.157L263.991 170.854L264.413 172.137L264.994 170.678L265.62 172.117L266.003 170.985L266.905 172.097Z" fill="#FFEECC"/>
<path fill-rule="evenodd" clip-rule="evenodd" d="M217.532 208.445L216.749 199.682L216.043 200.74L215.464 199.703L214.916 200.677L214.178 199.724L213.755 208.505L214.619 207.203L215.04 208.484L215.621 207.026L216.247 208.465L216.63 207.331L217.532 208.445Z" fill="#FFEECC"/>
<path fill-rule="evenodd" clip-rule="evenodd" d="M100.383 229.672C99.1981 231.688 98.0484 234.345 97.0535 236.461C95.0202 240.786 95.925 246.323 99.228 249.772C100.709 251.319 102.73 252.483 104.869 252.434C107.008 252.384 109.169 250.849 109.464 248.727C110.718 247.201 109.697 245.119 108.61 243.47C107.523 241.821 105.88 240.637 104.488 239.237C101.904 236.638 98.9646 233.054 100.383 229.672Z" fill="#FAC112"/>
<path fill-rule="evenodd" clip-rule="evenodd" d="M131.874 326.512C127.739 330.129 127.244 336.286 124.834 341.227C122.425 346.163 117.857 349.993 112.581 351.5C105.658 353.477 97.5832 351.707 91.6208 355.745C88.187 358.071 86.121 362.229 86.1637 366.363C86.1717 367.132 87.1603 367.471 87.6397 366.871C89.8973 364.036 93.4895 362.298 97.1241 361.801C101.503 361.203 105.951 362.179 110.149 363.564C114.485 364.997 118.936 366.902 123.444 366.181C128.561 365.362 132.56 361.308 135.433 356.989C138.308 352.669 140.481 347.839 143.986 344.016C146.577 341.191 149.852 338.996 153.449 337.677L131.874 326.512Z" fill="#B56EF9"/>
<path fill-rule="evenodd" clip-rule="evenodd" d="M132.49 338.407C129.558 344.392 127.232 351.003 122.192 355.357C119.091 358.036 115.09 359.653 111 359.88C101.465 360.409 92.3535 356.56 86.1714 366.132C86.1705 366.21 86.1656 366.287 86.166 366.365C86.1741 367.134 87.1635 367.474 87.6424 366.872C89.8996 364.037 93.4922 362.299 97.1269 361.803C101.506 361.205 105.954 362.18 110.152 363.566C114.487 364.999 118.938 366.905 123.447 366.183C128.564 365.363 132.563 361.31 135.436 356.99C138.31 352.671 140.484 347.841 143.989 344.017C146.58 341.192 149.855 338.999 153.452 337.679L138.236 329.805C135.876 332.261 133.988 335.348 132.49 338.407Z" fill="#FFD524"/>
<path fill-rule="evenodd" clip-rule="evenodd" d="M145.559 338.817C145.559 340.826 143.933 342.455 141.926 342.455C139.92 342.455 138.294 340.826 138.294 338.817C138.294 336.808 139.92 335.18 141.926 335.18C143.933 335.18 145.559 336.808 145.559 338.817Z" fill="#FF981D"/>
<path fill-rule="evenodd" clip-rule="evenodd" d="M124.613 326.511L154.626 342.456L153.453 340.529L156.539 341.561L155.215 338.818L159.039 339.498L129.907 322.553L131.244 325.057L127.303 324.268L128.732 325.935L124.613 326.511Z" fill="#FFEECC"/>
<path fill-rule="evenodd" clip-rule="evenodd" d="M128.735 107.498C125.027 111.795 123.28 117.965 125.022 123.37C127.256 130.294 135.347 134.649 142.396 132.885C149.444 131.121 154.509 123.652 153.749 116.415C152.411 103.693 137.273 97.6068 128.735 107.498Z" fill="#966544"/>
<path fill-rule="evenodd" clip-rule="evenodd" d="M129.618 107.936C125.91 112.232 124.163 118.403 125.905 123.808C128.139 130.732 136.23 135.087 143.278 133.323C150.327 131.559 155.392 124.09 154.631 116.853C153.294 104.13 138.156 98.0443 129.618 107.936Z" fill="white"/>
<path fill-rule="evenodd" clip-rule="evenodd" d="M151.864 120.584C151.864 125.133 148.181 128.82 143.64 128.82C139.098 128.82 135.416 125.133 135.416 120.584C135.416 116.035 139.098 112.348 143.64 112.348C148.181 112.348 151.864 116.035 151.864 120.584Z" fill="#1B65AF"/>
<path fill-rule="evenodd" clip-rule="evenodd" d="M149.825 121.552C149.825 124.278 147.618 126.488 144.897 126.488C142.175 126.488 139.969 124.278 139.969 121.552C139.969 118.825 142.175 116.615 144.897 116.615C147.618 116.615 149.825 118.825 149.825 121.552Z" fill="black"/>
<path fill-rule="evenodd" clip-rule="evenodd" d="M144.214 117.861C144.214 119.035 143.264 119.987 142.09 119.987C140.919 119.987 139.969 119.035 139.969 117.861C139.969 116.687 140.919 115.734 142.09 115.734C143.264 115.734 144.214 116.687 144.214 117.861Z" fill="white"/>
<path fill-rule="evenodd" clip-rule="evenodd" d="M146.204 125.758C146.204 126.68 145.457 127.427 144.537 127.427C143.616 127.427 142.869 126.68 142.869 125.758C142.869 124.836 143.616 124.088 144.537 124.088C145.457 124.088 146.204 124.836 146.204 125.758Z" fill="white"/>
<path fill-rule="evenodd" clip-rule="evenodd" d="M150.588 102.09L146.025 106.963L146.982 106.829L146.687 107.683L147.516 107.5L147.349 108.402L152.532 104.203L151.359 104.371L151.87 103.484L150.752 103.892L151.25 102.809L150.415 103.164L150.588 102.09Z" fill="#FFEECC"/>
<path fill-rule="evenodd" clip-rule="evenodd" d="M128.906 124.271L124.344 129.144L125.3 129.011L125.006 129.864L125.834 129.682L125.668 130.583L130.85 126.384L129.677 126.553L130.188 125.664L129.07 126.073L129.568 124.99L128.733 125.345L128.906 124.271Z" fill="#FFEECC"/>
<path fill-rule="evenodd" clip-rule="evenodd" d="M127.329 104.026L132.339 108.438L132.175 107.485L133.036 107.753L132.827 106.929L133.733 107.067L129.376 102.014L129.581 103.182L128.68 102.699L129.123 103.805L128.026 103.341L128.407 104.166L127.329 104.026Z" fill="#FFEECC"/>
<path fill-rule="evenodd" clip-rule="evenodd" d="M146.621 130.9L151.631 135.311L151.467 134.359L152.328 134.626L152.119 133.802L153.025 133.94L148.668 128.887L148.873 130.056L147.971 129.572L148.415 130.678L147.318 130.215L147.699 131.039L146.621 130.9Z" fill="#FFEECC"/>
<path fill-rule="evenodd" clip-rule="evenodd" d="M271.567 118.613C264.873 121.36 263.551 125.371 262.875 130.6C262.198 135.829 265.455 141.312 270.365 143.215C274.403 144.778 279.236 143.922 282.601 141.193C285.965 138.462 287.796 134 287.487 129.675C287.244 126.242 285.629 122.834 282.834 120.832C280.039 118.829 277.667 117.239 271.567 118.613Z" fill="#A36E4A"/>
<path fill-rule="evenodd" clip-rule="evenodd" d="M272.55 119.271C265.857 122.019 264.535 126.029 263.859 131.258C263.183 136.487 266.438 141.971 271.349 143.873C275.388 145.437 280.221 144.58 283.584 141.851C286.948 139.12 288.779 134.658 288.471 130.334C288.227 126.9 286.613 123.492 283.818 121.49C281.023 119.487 278.651 117.897 272.55 119.271Z" fill="white"/>
<path fill-rule="evenodd" clip-rule="evenodd" d="M279.557 121.246L275.234 113.588L275.027 114.844L274.071 114.138L273.974 115.252L272.908 114.689L276.142 122.862L276.392 121.32L277.306 122.312L277.232 120.744L278.395 121.796L278.278 120.606L279.557 121.246Z" fill="#FFEECC"/>
<path fill-rule="evenodd" clip-rule="evenodd" d="M272.288 150.646L275.795 142.58L274.669 143.17L274.657 141.981L273.711 142.574L273.519 141.381L268.944 148.885L270.325 148.158L270.083 149.485L271.289 148.484L271.15 150.046L272.029 149.236L272.288 150.646Z" fill="#FFEECC"/>
<path fill-rule="evenodd" clip-rule="evenodd" d="M285.04 133.973C285.04 138.39 281.464 141.972 277.053 141.972C272.642 141.972 269.067 138.39 269.067 133.973C269.067 129.555 272.642 125.975 277.053 125.975C281.464 125.975 285.04 129.555 285.04 133.973Z" fill="#F23300"/>
<path fill-rule="evenodd" clip-rule="evenodd" d="M284.558 133.976C284.558 137.761 281.495 140.831 277.714 140.831C273.935 140.831 270.869 137.761 270.869 133.976C270.869 130.19 273.935 127.121 277.714 127.121C281.495 127.121 284.558 130.19 284.558 133.976Z" fill="#FF6243"/>
<path fill-rule="evenodd" clip-rule="evenodd" d="M283.994 135.729C283.994 138.319 281.898 140.418 279.312 140.418C276.727 140.418 274.631 138.319 274.631 135.729C274.631 133.14 276.727 131.041 279.312 131.041C281.898 131.041 283.994 133.14 283.994 135.729Z" fill="#F23300"/>
<path fill-rule="evenodd" clip-rule="evenodd" d="M282.647 137.23C282.647 139.031 281.189 140.489 279.392 140.489C277.595 140.489 276.138 139.031 276.138 137.23C276.138 135.431 277.595 133.973 279.392 133.973C281.189 133.973 282.647 135.431 282.647 137.23Z" fill="#0C0C0C"/>
<path fill-rule="evenodd" clip-rule="evenodd" d="M278.752 137.381C278.752 138.292 278.015 139.03 277.105 139.03C276.197 139.03 275.46 138.292 275.46 137.381C275.46 136.47 276.197 135.732 277.105 135.732C278.015 135.732 278.752 136.47 278.752 137.381Z" fill="white"/>
<path fill-rule="evenodd" clip-rule="evenodd" d="M127.001 217.976C127.001 221.442 124.556 224.25 121.539 224.25C118.522 224.25 116.077 221.442 116.077 217.976C116.077 214.511 118.522 211.701 121.539 211.701C124.556 211.701 127.001 214.511 127.001 217.976Z" fill="#424242"/>
<path fill-rule="evenodd" clip-rule="evenodd" d="M128.158 217.976C128.158 221.442 125.713 224.25 122.697 224.25C119.681 224.25 117.235 221.442 117.235 217.976C117.235 214.511 119.681 211.701 122.697 211.701C125.713 211.701 128.158 214.511 128.158 217.976Z" fill="#A8A8A8"/>
<path fill-rule="evenodd" clip-rule="evenodd" d="M147.37 220.872L123.966 221.756C121.273 221.805 118.948 219.886 118.948 217.465C118.948 215.018 121.317 213.168 124.057 213.368L147.756 215.536C149.185 215.639 150.218 216.64 150.107 218.292C149.996 219.933 148.789 220.845 147.37 220.872Z" fill="#424242"/>
<path fill-rule="evenodd" clip-rule="evenodd" d="M148.989 221.447L127.125 221.445C124.616 221.445 122.454 219.588 122.46 217.297C122.466 214.981 124.676 213.273 127.23 213.508L149.361 215.556C150.699 215.681 151.664 217.067 151.556 218.631C151.45 220.184 150.316 221.447 148.989 221.447Z" fill="#CECECE"/>
</svg>
