<svg width="291" height="207" viewBox="0 0 291 207" fill="none" xmlns="http://www.w3.org/2000/svg">
<mask id="mask0_843_119" style="mask-type:luminance" maskUnits="userSpaceOnUse" x="27" y="154" width="38" height="52">
<path fill-rule="evenodd" clip-rule="evenodd" d="M27.2534 154.885H64.9917V205.781H27.2534V154.885Z" fill="white"/>
</mask>
<g mask="url(#mask0_843_119)">
<path fill-rule="evenodd" clip-rule="evenodd" d="M64.9917 171.415C64.9917 171.415 51.5288 185.406 46.6786 205.782H27.2534C27.2534 205.782 29.0427 198.536 37.659 198.029C37.659 198.029 29.5508 175.287 50.2789 154.885L64.9917 171.415Z" fill="#276087"/>
</g>
<path fill-rule="evenodd" clip-rule="evenodd" d="M51.4383 156.187C50.7171 156.061 49.9907 155.968 49.2622 155.914C41.9731 163.462 38.5195 171.27 37.0498 178.083C39.0542 178.598 41.2355 178.348 42.8759 177.111C40.2384 180.92 40.9818 185.913 44.7087 188.666C46.8217 190.227 49.454 190.883 52.0868 190.77C57.8431 178.853 64.9918 171.416 64.9918 171.416L51.4383 156.187Z" fill="#134560"/>
<path fill-rule="evenodd" clip-rule="evenodd" d="M73.6475 171.489L84.2499 187.442L78.9486 204.751H97.2205C97.2205 204.751 96.9706 198.902 91.1369 199.248C91.1369 199.248 99.399 186.717 99.6463 182.392C99.8937 178.066 93.1788 155.915 93.1788 155.915L73.6475 171.489Z" fill="#276087"/>
<path fill-rule="evenodd" clip-rule="evenodd" d="M93.1795 155.915L74.1396 171.096C74.1672 171.538 74.208 171.977 74.261 172.413L80.0252 181.086C81.5411 180.964 83.3074 179.794 85.2732 177.12C88.6265 181.159 94.2931 183.241 99.3194 181.014C99.4029 180.976 99.4799 180.93 99.5618 180.891C98.7799 174.395 93.1795 155.915 93.1795 155.915Z" fill="#134560"/>
<path fill-rule="evenodd" clip-rule="evenodd" d="M73.7137 171.773C72.4293 173.255 73.2193 175.816 74.9419 176.756C76.6639 177.697 78.8723 177.279 80.5243 176.219C82.1753 175.16 83.3894 173.556 84.566 171.987C85.5274 173.447 86.5177 174.939 87.9251 175.976C89.3316 177.013 91.2651 177.519 92.8578 176.797C94.4497 176.076 95.3358 173.872 94.3173 172.451C95.114 174.137 96.8937 175.314 98.7578 175.386C100.621 175.458 102.487 174.423 103.413 172.804C104.616 170.699 104.138 167.905 102.662 165.982C101.184 164.058 98.8769 162.915 96.5156 162.358C93.2624 161.59 89.7759 161.837 86.6642 163.058C85.0781 163.68 83.5864 164.546 81.9485 165.015C80.3108 165.484 78.4219 165.496 77.039 164.502" fill="#358DA5"/>
<path fill-rule="evenodd" clip-rule="evenodd" d="M203.347 158.968C203.347 158.968 173.624 179.93 165.919 204.752H131.96C131.96 204.752 135.288 198.036 143.277 197.16C143.277 197.16 150.608 168.469 170.739 149.67L203.347 158.968Z" fill="#D95D5D"/>
<path fill-rule="evenodd" clip-rule="evenodd" d="M170.738 149.67C159.226 160.422 151.902 174.405 147.738 184.409C154.686 187.14 163.066 190.366 163.066 190.366L155.18 204.752H165.919C170.924 188.632 185.211 174.143 194.615 165.962C195.74 162.81 196.783 159.895 197.69 157.355L170.738 149.67Z" fill="#C94D4E"/>
<path fill-rule="evenodd" clip-rule="evenodd" d="M191.152 167.712L211.454 188.215L204.984 204.917H240.308L231.673 197.904L237.146 183.542L227.099 160.983L191.152 167.712Z" fill="#D95D5D"/>
<path fill-rule="evenodd" clip-rule="evenodd" d="M233.331 171.826L220.638 184.47L223.377 204.917H204.985L211.455 188.214L191.152 167.711L219.312 159.865L233.331 171.826Z" fill="#C94D4E"/>
<path fill-rule="evenodd" clip-rule="evenodd" d="M219.412 30.8096C218.722 22.5206 219.047 14.1475 220.376 5.93638C220.689 4.00582 221.138 1.93385 222.603 0.638868C223.015 0.275531 223.53 -0.0210702 224.079 0.00117492C225.19 0.0451355 225.819 1.27497 226.14 2.33956C227.883 8.09575 227.564 14.4531 225.253 20.0064C229.816 12.8885 235.993 7.32247 243.071 2.6976C244.489 1.77125 246.129 0.869793 247.788 1.20876C248.36 1.32582 248.941 1.63248 249.169 2.17007C249.411 2.73785 249.199 3.38826 248.971 3.96133C244.397 15.4075 229.513 23.7398 219.412 30.8096Z" fill="#603314"/>
<path fill-rule="evenodd" clip-rule="evenodd" d="M201.153 46.582C201.153 46.582 192.534 54.8588 180.006 52.6984C179.52 52.6153 179.114 53.0591 179.265 53.5278C179.946 55.6459 181.856 60.3104 185.534 60.543C185.534 60.543 180.135 63.5228 176.489 64.1943C175.952 64.2929 175.787 64.9851 176.212 65.3294C179.207 67.7562 187.608 73.5786 196.999 71.3594L201.153 46.582Z" fill="#370F0F"/>
<path fill-rule="evenodd" clip-rule="evenodd" d="M280.141 73.0676C280.141 73.0676 262.92 118.462 255.499 134.546C248.078 150.63 235.792 170.47 233.331 172.198C230.87 173.928 221.491 184.017 199.794 169.455C178.095 154.892 166.258 147.728 159.764 136.868C153.269 126.008 174.488 104.101 174.488 104.101C174.488 104.101 195.526 63.8693 201.153 46.5817C201.153 46.5817 206.683 22.4674 221.708 26.0494C236.732 29.6314 278.513 39.4685 281.657 49.1197C284.801 58.7714 280.141 73.0676 280.141 73.0676Z" fill="#D95D5D"/>
<path fill-rule="evenodd" clip-rule="evenodd" d="M223.376 176.993C228.99 176.157 232.07 173.084 233.331 172.199C235.792 170.472 248.078 150.631 255.498 134.547C259.202 126.52 265.345 111.196 270.571 97.8555L266.137 99.0369C266.137 99.0369 250.338 149.46 233.785 167.65C229.801 172.027 226.342 174.995 223.376 176.993Z" fill="#C94D4E"/>
<path fill-rule="evenodd" clip-rule="evenodd" d="M227.099 38.6823L205.083 36.9863L204.11 38.2198C202.053 42.663 201.153 46.5819 201.153 46.5819C195.526 63.8696 174.488 104.101 174.488 104.101C174.488 104.101 154.963 124.27 159.126 135.496C163.523 123.459 176.128 106.415 176.128 106.415L196.412 67.8446C212.118 64.3425 227.099 38.6823 227.099 38.6823Z" fill="#C94D4E"/>
<path fill-rule="evenodd" clip-rule="evenodd" d="M220.541 61.7728C223.712 58.8004 226.603 55.3222 228.5 51.4447C229.661 49.0718 230.45 46.5492 230.703 43.9009C230.897 41.8756 230.597 39.499 228.884 38.3985C224.776 35.7576 218.945 41.7818 218.146 45.5094C217.129 50.2583 218.603 57.4625 220.541 61.7728Z" fill="#C94D4E"/>
<path fill-rule="evenodd" clip-rule="evenodd" d="M277.875 79.0011C278.356 75.9344 278.606 72.8418 278.46 69.7423C277.893 57.7591 271.1 46.2398 260.886 39.9413C258.349 38.3773 255.29 36.9975 252.236 37.2496C250.022 37.4323 245.147 39.1458 244.039 41.2654C242.772 43.6885 245.062 48.7091 245.561 51.2916C246.256 54.89 246.776 58.5282 246.915 62.1944C247.198 69.5856 245.856 77.2363 241.8 83.4228C241.386 84.0541 240.924 84.7557 241.051 85.5004C241.223 86.5106 242.357 87.0169 243.352 87.2618C246.144 87.9477 249.108 87.9312 251.893 87.2147C251.358 89.7696 246.903 90.9179 247.769 93.3802C248.082 94.2704 249.028 94.7544 249.914 95.0788C252.875 96.1634 256.129 96.4406 259.232 95.8706C256.66 97.0107 253.582 99.1957 254.479 101.862C254.894 103.093 256.094 103.898 257.315 104.345C261.411 105.844 266.089 104.157 269.284 101.133C272.703 92.4461 275.858 84.2643 277.875 79.0011Z" fill="#C94D4E"/>
<path fill-rule="evenodd" clip-rule="evenodd" d="M221.164 56.1107C225.752 49.2799 235.011 47.46 241.845 52.0461C248.678 56.6324 250.498 65.8879 245.91 72.7188C241.323 79.5496 232.063 81.3689 225.23 76.7827C218.396 72.197 216.576 62.941 221.164 56.1107Z" fill="white"/>
<path fill-rule="evenodd" clip-rule="evenodd" d="M240.805 65.0019C240.805 69.9123 236.823 73.8932 231.911 73.8932C226.998 73.8932 223.017 69.9123 223.017 65.0019C223.017 60.0916 226.998 56.1113 231.911 56.1113C236.823 56.1113 240.805 60.0916 240.805 65.0019Z" fill="#202020"/>
<path fill-rule="evenodd" clip-rule="evenodd" d="M243.427 65.4942C241.371 66.8183 238.631 66.2256 237.307 64.1701C235.983 62.115 236.576 59.3763 238.632 58.0527C240.687 56.7286 243.428 57.3213 244.752 59.3763C246.076 61.4318 245.483 64.1706 243.427 65.4942Z" fill="white"/>
<path fill-rule="evenodd" clip-rule="evenodd" d="M276.268 78.313C273.035 79.6741 271.035 82.9848 268.419 85.3205C267.81 85.8641 267.147 86.703 267.573 87.3988C267.768 87.7165 268.137 87.8771 268.489 87.9979C270.169 88.5729 272.005 88.6804 273.74 88.3065C270.545 89.7113 267.55 91.5655 264.867 93.7985C269.835 96.1226 276.366 94.3264 279.445 89.7908C279.445 89.7908 290.249 72.4254 276.268 78.313Z" fill="#370F0F"/>
<mask id="mask1_843_119" style="mask-type:luminance" maskUnits="userSpaceOnUse" x="185" y="19" width="105" height="74">
<path fill-rule="evenodd" clip-rule="evenodd" d="M185.533 19.79H289.805V92.0965H185.533V19.79Z" fill="white"/>
</mask>
<g mask="url(#mask1_843_119)">
<path fill-rule="evenodd" clip-rule="evenodd" d="M197.485 32.6766C197.485 32.6766 200.881 19.8729 212.383 19.7908C223.885 19.7087 255.852 26.3399 265.78 31.702C275.706 37.0636 295.818 41.9797 288.067 67.4642C281.991 87.4384 264.34 91.3361 256.991 92.0882C255.643 92.2256 254.748 90.7313 255.504 89.607L259.018 84.3755C259.018 84.3755 253.737 85.5363 248.365 84.9911C247.326 84.886 246.659 83.8427 247.009 82.859C249.118 76.9316 254.928 57.7871 248.345 42.3665C248.345 42.3665 234.479 59.3246 222.554 60.4242C222.554 60.4242 221.627 50.9599 225.485 43.6667C225.485 43.6667 216.494 63.6375 185.533 60.5423C185.533 60.5423 193.186 55.7967 194.592 51.5394C196 47.2826 194.44 38.9555 197.485 32.6766Z" fill="#603314"/>
</g>
<path fill-rule="evenodd" clip-rule="evenodd" d="M235.58 94.9993C235.58 94.9993 227.374 90.2718 223.556 83.9821C221.283 80.2387 216.894 80.8288 215.558 83.6429C213.502 87.9766 211.926 98.4552 226.093 107.963C236.434 114.903 249.394 108.258 250.504 104.929C250.99 103.467 251.801 100.52 246.686 99.0319C241.065 97.3954 241.899 98.3733 235.58 94.9993Z" fill="white"/>
<path fill-rule="evenodd" clip-rule="evenodd" d="M219.312 87.2012C219.312 87.2012 227.612 107.249 246.493 104.057C246.493 104.057 228.658 105.177 219.312 87.2012Z" fill="#D8D8D8"/>
<path fill-rule="evenodd" clip-rule="evenodd" d="M218.633 111.005L230.754 127.669L241.029 125.73C241.029 125.73 227.342 139.104 227.616 139.225C227.892 139.346 215.729 120.036 215.729 120.036L218.633 111.005Z" fill="#C94D4E"/>
<path fill-rule="evenodd" clip-rule="evenodd" d="M201.153 175.082L220.311 180.333L224.285 157.578L230.755 162.987L243.179 147.645C243.179 147.645 231.456 148.227 230.755 147.645C230.053 147.064 214.227 134.125 214.227 134.125L201.153 144.594V175.082Z" fill="#C94D4E"/>
<path fill-rule="evenodd" clip-rule="evenodd" d="M84.7636 56.4005C92.07 57.097 110.896 77.5679 118.864 89.6028C122.916 95.7203 123.827 103.63 128.7 109.115C126.028 111.409 121.871 111.77 118.843 109.974C121.655 118.618 123.162 127.7 120.653 136.436C120.341 137.523 120.422 138.456 120.847 139.505C124.773 149.222 117.411 151.547 113.168 151.32C113.148 153.291 94.7416 176.5 66.1227 174.244C64.9338 174.15 63.7453 173.783 62.5738 174.008C61.3668 174.238 60.3162 174.953 59.3046 175.65C55.3234 178.398 51.3421 181.146 47.3603 183.894C44.9225 179.248 44.1484 173.75 45.2086 168.612C38.2364 167.224 31.9174 163.764 28.2361 157.684C27.9213 158.84 27.5817 160.042 26.7816 160.934C25.9816 161.827 24.5722 162.296 23.5533 161.665C22.8788 161.249 22.5306 160.471 22.2366 159.735C19.6706 153.307 18.3184 146.398 18.2713 139.477C16.0851 142.148 12.6252 143.727 9.17431 143.627C5.72343 143.529 2.35943 141.755 0.32959 138.963C7.55457 135.604 11.0409 126.406 12.1902 118.523C13.3394 110.641 12.6194 102.546 14.1268 94.725C16.3739 83.0658 23.7705 72.4964 33.9563 66.3891C43.2191 60.8358 54.2118 59.0239 64.9586 57.9487C73.2751 57.1166 76.4436 55.6066 84.7636 56.4005Z" fill="#52B9CA"/>
<path fill-rule="evenodd" clip-rule="evenodd" d="M84.3415 61.2596C83.9071 59.571 85.5453 58.0881 87.1016 57.3005C87.1727 57.2644 87.2447 57.2332 87.3159 57.1982C95.7715 61.1611 111.702 78.7855 118.865 89.603C120.433 91.9701 121.53 94.6069 122.567 97.2661C112.989 85.7591 101.195 76.0949 88.0042 69.003L84.3415 61.2596Z" fill="#499FBD"/>
<path fill-rule="evenodd" clip-rule="evenodd" d="M111.613 146.24C115.631 147.787 120.103 147.498 121.977 142.734C122.485 150.002 116.883 151.518 113.168 151.32C113.148 153.291 94.7414 176.501 66.1229 174.244C64.9334 174.149 63.745 173.783 62.5735 174.008C61.3665 174.238 60.3164 174.954 59.3043 175.651C55.6394 178.18 51.975 180.709 48.3101 183.238C53.3489 178.777 57.8584 173.717 61.6977 168.189C80.5862 169.814 100.048 161.256 111.613 146.24Z" fill="#499FBD"/>
<path fill-rule="evenodd" clip-rule="evenodd" d="M19.938 134.104C18.732 134.959 24.3738 150.676 43.0504 168.104C36.9482 166.468 31.5332 163.129 28.2364 157.684C27.9211 158.84 27.5821 160.042 26.7814 160.934C25.9814 161.827 24.5725 162.297 23.5531 161.666C22.8792 161.248 22.531 160.471 22.237 159.735C19.6709 153.308 18.3182 146.398 18.2711 139.477C16.0854 142.148 12.6251 143.727 9.17469 143.627C6.11005 143.54 3.12013 142.127 1.06592 139.858C7.75046 139.991 14.48 137.974 19.938 134.104Z" fill="#499FBD"/>
<path fill-rule="evenodd" clip-rule="evenodd" d="M101.131 73.3187C101.232 76.0289 98.7345 78.1417 96.2127 79.1443C92.104 80.7777 87.4302 80.6368 83.1957 79.3598C78.9618 78.0824 75.1231 75.7334 71.6107 73.0465C67.4032 69.8289 63.2879 65.3793 63.5661 60.0908" fill="#499FBD"/>
<path fill-rule="evenodd" clip-rule="evenodd" d="M68.3994 92.745C73.8044 84.6128 84.7815 82.4002 92.9162 87.8031C101.052 93.2058 103.266 104.178 97.8605 112.311C92.4553 120.444 81.4787 122.656 73.3429 117.252C65.2081 111.85 62.9944 100.877 68.3994 92.745Z" fill="#499EBC"/>
<path fill-rule="evenodd" clip-rule="evenodd" d="M66.4588 94.1062C71.8638 85.974 82.8409 83.7616 90.9755 89.1643C99.111 94.5679 101.325 105.54 95.9199 113.673C90.5139 121.806 79.5375 124.018 71.4023 118.614C63.2671 113.211 61.0534 102.238 66.4588 94.1062Z" fill="white"/>
<mask id="mask2_843_119" style="mask-type:luminance" maskUnits="userSpaceOnUse" x="63" y="86" width="36" height="36">
<path fill-rule="evenodd" clip-rule="evenodd" d="M76.6737 86.7969C67.2307 89.2898 61.5959 98.9634 64.0893 108.404C66.5833 117.844 76.2604 123.476 85.7044 120.983C95.1471 118.49 100.782 108.817 98.2886 99.3762C96.1937 91.4492 89.0345 86.2062 81.2001 86.207C79.706 86.207 78.1864 86.3973 76.6737 86.7969Z" fill="white"/>
</mask>
<g mask="url(#mask2_843_119)">
<path fill-rule="evenodd" clip-rule="evenodd" d="M83.4563 105.097C82.2057 100.363 85.0308 95.5132 89.765 94.2638C94.5 93.0137 99.3525 95.8375 100.603 100.571C101.853 105.303 99.0281 110.153 94.2931 111.404C89.5581 112.654 84.7064 109.829 83.4563 105.097Z" fill="#1E74BB"/>
</g>
<mask id="mask3_843_119" style="mask-type:luminance" maskUnits="userSpaceOnUse" x="63" y="86" width="36" height="36">
<path fill-rule="evenodd" clip-rule="evenodd" d="M76.6737 86.7969C67.2307 89.2898 61.5959 98.9634 64.0893 108.404C66.5833 117.844 76.2604 123.476 85.7044 120.983C95.1471 118.49 100.782 108.817 98.2886 99.3762C96.1937 91.4492 89.0345 86.2062 81.2001 86.207C79.706 86.207 78.1864 86.3973 76.6737 86.7969Z" fill="white"/>
</mask>
<g mask="url(#mask3_843_119)">
<path fill-rule="evenodd" clip-rule="evenodd" d="M85.1818 104.641C84.1831 100.861 86.4394 96.987 90.2212 95.9884C94.0031 94.9898 97.8793 97.246 98.878 101.026C99.8758 104.806 97.6195 108.681 93.8377 109.679C90.0558 110.677 86.1804 108.422 85.1818 104.641Z" fill="#231E20"/>
</g>
<mask id="mask4_843_119" style="mask-type:luminance" maskUnits="userSpaceOnUse" x="63" y="86" width="36" height="36">
<path fill-rule="evenodd" clip-rule="evenodd" d="M76.6737 86.7969C67.2307 89.2898 61.5959 98.9634 64.0893 108.404C66.5833 117.844 76.2604 123.476 85.7044 120.983C95.1471 118.49 100.782 108.817 98.2886 99.3762C96.1937 91.4492 89.0345 86.2062 81.2001 86.207C79.706 86.207 78.1864 86.3973 76.6737 86.7969Z" fill="white"/>
</mask>
<g mask="url(#mask4_843_119)">
<path fill-rule="evenodd" clip-rule="evenodd" d="M82.7755 110.776C82.2265 108.698 83.4672 106.568 85.5463 106.02C87.6239 105.47 89.7552 106.711 90.3037 108.789C90.8522 110.867 89.612 112.996 87.5337 113.546C85.4545 114.094 83.324 112.855 82.7755 110.776Z" fill="white"/>
</g>
<path fill-rule="evenodd" clip-rule="evenodd" d="M69.7221 72.7256C69.2818 73.3988 68.4457 73.7488 67.6233 73.5344C62.7673 72.268 60.6008 77.1031 60.5112 77.3091C60.0858 78.2848 58.9524 78.7312 57.9765 78.307C57.001 77.8828 56.5538 76.7488 56.9782 75.7737C58.1942 72.9804 62.1866 68.1367 68.5961 69.8083C69.6251 70.0768 70.2418 71.1281 69.9738 72.1573C69.9192 72.3644 69.8334 72.5556 69.7221 72.7256Z" fill="#306999"/>
<path fill-rule="evenodd" clip-rule="evenodd" d="M98.678 88.3384C95.4107 84.099 90.248 81.3786 84.9023 81.0809C88.0579 80.7065 90.8619 79.9719 93.7121 81.3754C96.5632 82.7785 98.6325 85.1621 98.678 88.3384Z" fill="#499EBC"/>
<path d="M64.0259 125.384C70.276 130.81 79.8031 132.109 87.2788 128.553" stroke="#231E20" stroke-width="2.51054" stroke-linecap="round"/>
<path fill-rule="evenodd" clip-rule="evenodd" d="M52.9064 163.09C54.9924 162.136 56.3594 159.577 55.5583 157.429C58.0289 157.891 60.8266 157.365 62.512 155.502C64.1979 153.637 64.2457 150.31 62.2243 148.817C63.7216 148.738 64.8009 147.267 65.131 145.805C65.7938 142.873 64.0973 139.587 61.3236 138.428C58.5488 137.269 55.0173 138.37 53.3954 140.9C51.4827 143.884 51.3317 146.779 48.6109 149.33C46.8709 150.961 43.6553 151.833 42.5294 154.086C39.8595 159.426 47.9449 165.358 52.9064 163.09Z" fill="#499FBD"/>
<path fill-rule="evenodd" clip-rule="evenodd" d="M47.2197 157.262C58.551 162.776 62.519 163.811 76.2632 163.586C84.2912 163.455 97.7516 158.95 104.763 153.597C104.092 149.011 104.09 149.373 103.42 144.787C100.354 144.346 73.8376 154.891 60.8008 139.225" fill="#276087"/>
<path fill-rule="evenodd" clip-rule="evenodd" d="M60.8007 139.225L47.2197 157.262C52.3815 159.773 56.0157 161.353 59.7416 162.311C61.3581 160.157 61.8302 157.065 60.4378 154.721C64.6198 156.095 69.3233 152.748 70.4423 148.493C70.6516 147.699 70.7592 146.893 70.7782 146.086C67.0709 144.774 63.62 142.613 60.8007 139.225Z" fill="#134560"/>
<path fill-rule="evenodd" clip-rule="evenodd" d="M39.5176 152.634C40.7955 155.887 43.1035 158.725 46.0267 160.639C47.2587 161.447 48.7189 162.111 50.1659 161.833C52.2603 161.429 53.5463 159.091 53.4181 156.962C53.2909 154.833 52.0914 152.923 50.7657 151.252C52.0685 152.086 53.4117 152.937 54.9292 153.237C56.4467 153.536 58.2016 153.162 59.1266 151.923C59.9707 150.793 59.9416 149.195 59.4138 147.888C58.8861 146.58 57.9329 145.497 56.9972 144.443C59.0159 144.433 61.4749 144.153 62.2882 142.305C62.9495 140.805 62.0895 139.061 60.9864 137.847C58.608 135.23 54.9557 133.826 51.4359 134.177" fill="#52B9CA"/>
<path fill-rule="evenodd" clip-rule="evenodd" d="M100.745 70.4443L219.312 77.2312L220.312 171.617L101.134 170.577L100.745 70.4443Z" fill="#474BB4"/>
<path fill-rule="evenodd" clip-rule="evenodd" d="M100.511 70.542L219.077 77.3294L220.077 171.715L100.9 170.675L100.511 70.542Z" fill="#474BB4"/>
<path fill-rule="evenodd" clip-rule="evenodd" d="M106.954 70.9107V170.728L100.9 170.675L100.512 70.542L106.954 70.9107Z" fill="#31399B"/>
<path fill-rule="evenodd" clip-rule="evenodd" d="M136.341 120.635C136.341 104.503 123.258 91.4248 107.119 91.4248V149.846C123.258 149.846 136.341 136.769 136.341 120.635Z" fill="#FAC112"/>
<path fill-rule="evenodd" clip-rule="evenodd" d="M145.078 121.073C145.078 100.782 128.565 84.2744 108.267 84.2744C105.626 84.2744 103.052 84.5607 100.568 85.0902L100.569 85.5395C103.052 85.0017 105.626 84.7121 108.267 84.7121C128.323 84.7121 144.641 101.024 144.641 121.073C144.641 141.122 128.323 157.433 108.267 157.433C105.725 157.433 103.242 157.169 100.846 156.67L100.848 157.12C103.244 157.612 105.726 157.871 108.267 157.871C128.565 157.871 145.078 141.363 145.078 121.073Z" fill="white"/>
<path fill-rule="evenodd" clip-rule="evenodd" d="M152.314 121.073C152.314 96.7947 132.555 77.043 108.267 77.043C105.631 77.043 103.049 77.2765 100.539 77.722L100.541 78.1658C103.049 77.7156 105.631 77.4805 108.267 77.4805C132.313 77.4805 151.876 97.0363 151.876 121.073C151.876 145.11 132.313 164.665 108.267 164.665C105.747 164.665 103.278 164.448 100.874 164.035L100.876 164.479C103.28 164.887 105.749 165.102 108.267 165.102C132.555 165.102 152.314 145.351 152.314 121.073Z" fill="white"/>
<path fill-rule="evenodd" clip-rule="evenodd" d="M159.29 121.073C159.29 97.4064 143.081 77.4554 121.178 71.7251L118.653 71.5811C141.58 76.3828 158.853 96.7486 158.853 121.073C158.853 145.854 140.927 166.526 117.357 170.819L119.457 170.838C142.227 165.725 159.29 145.355 159.29 121.073Z" fill="white"/>
<path fill-rule="evenodd" clip-rule="evenodd" d="M101.096 70.5752C100.901 70.6027 100.705 70.6276 100.512 70.6567L100.513 71.1001C101.544 70.9406 102.586 70.8161 103.636 70.7203L101.096 70.5752Z" fill="white"/>
<path fill-rule="evenodd" clip-rule="evenodd" d="M166.27 121.073C166.27 100.972 155.982 83.2306 140.396 72.8252L139.525 72.7754C155.346 83.0412 165.832 100.854 165.832 121.073C165.832 142.396 154.167 161.049 136.882 170.988L137.73 170.997C154.798 160.892 166.27 142.298 166.27 121.073Z" fill="white"/>
<path fill-rule="evenodd" clip-rule="evenodd" d="M175.393 121.073C175.393 102.602 167.887 85.8514 155.766 73.7051L155.104 73.667C167.351 85.7603 174.955 102.545 174.955 121.073C174.955 140.993 166.166 158.898 152.264 171.124L152.917 171.13C166.7 158.832 175.393 140.949 175.393 121.073Z" fill="white"/>
<path fill-rule="evenodd" clip-rule="evenodd" d="M173.871 74.7413L173.31 74.709C182.669 87.7914 188.183 103.8 188.183 121.073C188.183 140.078 181.505 157.552 170.376 171.281L170.934 171.286C181.992 157.523 188.621 140.059 188.621 121.073C188.621 103.831 183.156 87.8418 173.871 74.7413Z" fill="white"/>
<path fill-rule="evenodd" clip-rule="evenodd" d="M189.5 75.6362L188.982 75.6064C196.589 89.0463 200.938 104.56 200.938 121.073C200.938 139.623 195.451 156.914 186.021 171.418L186.542 171.422C195.923 156.899 201.376 139.611 201.376 121.073C201.376 104.583 197.058 89.0836 189.5 75.6362Z" fill="white"/>
<path fill-rule="evenodd" clip-rule="evenodd" d="M204.338 76.486L203.77 76.4531C210.134 90.0113 213.7 105.133 213.7 121.074C213.7 139.348 209.02 156.549 200.799 171.547L201.368 171.552C209.705 156.237 214.137 138.996 214.137 121.074C214.137 105.413 210.753 90.2753 204.338 76.486Z" fill="white"/>
<path fill-rule="evenodd" clip-rule="evenodd" d="M106.954 70.9107V170.728L100.9 170.675L100.512 70.542L106.954 70.9107Z" fill="#31399B"/>
<path fill-rule="evenodd" clip-rule="evenodd" d="M124.062 85.83C124.062 88.3733 122 90.4343 119.457 90.4343C116.913 90.4343 114.851 88.3733 114.851 85.83C114.851 83.2875 116.913 81.2266 119.457 81.2266C122 81.2266 124.062 83.2875 124.062 85.83Z" fill="#A77C51"/>
<path fill-rule="evenodd" clip-rule="evenodd" d="M156.162 135.68C156.162 139.412 153.136 142.436 149.403 142.436C145.67 142.436 142.645 139.412 142.645 135.68C142.645 131.949 145.67 128.924 149.403 128.924C153.136 128.924 156.162 131.949 156.162 135.68Z" fill="#FFA227"/>
<path fill-rule="evenodd" clip-rule="evenodd" d="M162.92 108.544C162.92 112.276 159.894 115.301 156.162 115.301C152.429 115.301 149.403 112.276 149.403 108.544C149.403 104.813 152.429 101.788 156.162 101.788C159.894 101.788 162.92 104.813 162.92 108.544Z" fill="#52B9CA"/>
<path fill-rule="evenodd" clip-rule="evenodd" d="M157.292 157.871C157.292 160.287 155.334 162.244 152.917 162.244C150.502 162.244 148.543 160.287 148.543 157.871C148.543 155.456 150.502 153.498 152.917 153.498C155.334 153.498 157.292 155.456 157.292 157.871Z" fill="#DC5D60"/>
<path fill-rule="evenodd" clip-rule="evenodd" d="M186.168 128.924C186.168 135.114 181.148 140.133 174.955 140.133C168.762 140.133 163.741 135.114 163.741 128.924C163.741 122.734 168.762 117.715 174.955 117.715C181.148 117.715 186.168 122.734 186.168 128.924Z" fill="#4ED1BE"/>
<path fill-rule="evenodd" clip-rule="evenodd" d="M188.448 90.1718C188.448 95.1128 184.441 99.1181 179.498 99.1181C174.556 99.1181 170.549 95.1128 170.549 90.1718C170.549 85.2308 174.556 81.2256 179.498 81.2256C184.441 81.2256 188.448 85.2308 188.448 90.1718Z" fill="#BD997F"/>
<path fill-rule="evenodd" clip-rule="evenodd" d="M209.07 120.636C209.07 125.577 205.064 129.582 200.121 129.582C195.178 129.582 191.171 125.577 191.171 120.636C191.171 115.695 195.178 111.689 200.121 111.689C205.064 111.689 209.07 115.695 209.07 120.636Z" fill="#BDF3FF"/>
<path fill-rule="evenodd" clip-rule="evenodd" d="M215.747 157.434C215.747 162.004 212.04 165.709 207.468 165.709C202.896 165.709 199.19 162.004 199.19 157.434C199.19 152.863 202.896 149.158 207.468 149.158C212.04 149.158 215.747 152.863 215.747 157.434Z" fill="#3982D8"/>
<path fill-rule="evenodd" clip-rule="evenodd" d="M126.709 175.081C128.558 175.063 130.48 174.746 131.809 173.46C133.136 172.175 133.817 170.252 133.593 168.418C131.842 168.413 130.677 169.067 129.545 170.401C130.27 169.249 130.332 168.029 129.906 166.735C128.292 166.364 126.79 167.527 126.032 168.999C126.464 168.028 126.399 167.021 126.04 166.02C124.7 166.154 123.201 167.601 122.218 168.522C120.885 169.774 120.885 169.774 117.358 170.818C116.967 170.934 119.8 175.149 126.709 175.081Z" fill="#134560"/>
<path fill-rule="evenodd" clip-rule="evenodd" d="M98.1007 147.566C97.7259 145.757 98.2447 143.784 99.4626 142.393C100.68 141.003 102.566 140.227 104.41 140.358C104.504 142.106 103.909 143.301 102.632 144.499C103.747 143.716 104.963 143.594 106.277 143.954C106.729 145.546 105.643 147.105 104.211 147.935C105.16 147.454 106.169 147.469 107.188 147.776C107.121 149.122 105.751 150.691 104.879 151.719C103.696 153.113 103.304 154.403 101.84 155.499C101.514 155.742 101.126 155.932 100.721 155.917C99.8067 155.88 99.2714 154.889 98.9835 154.021C98.2141 151.709 98.5963 149.952 98.1007 147.566Z" fill="#276087"/>
<path fill-rule="evenodd" clip-rule="evenodd" d="M41.4728 64.8983C40.1122 64.2341 38.7574 63.4264 37.8974 62.1802C37.038 60.9339 36.8006 59.1495 37.6955 57.9287C38.511 56.8164 39.9967 56.4478 41.37 56.318C45.1977 55.9563 47.6508 57.2163 50.9162 59.2453C50.0262 54.7767 50.3483 49.931 52.6091 45.9746C54.87 42.0176 59.2846 39.1548 63.8308 39.4849C64.2641 39.5156 64.7299 39.5913 65.0324 39.9022C65.3615 40.2396 65.4049 40.7597 65.3784 41.23C65.1957 44.5382 62.6598 47.1472 60.88 49.9422C58.9095 53.0364 57.286 55.54 57.1403 59.2046C59.2778 53.6835 63.738 49.385 68.4881 45.8495C70.5709 44.2988 72.8768 42.8073 75.4699 42.6622C78.2945 42.5033 80.9427 43.9694 83.2736 45.572C89.9024 50.1286 95.4805 56.2036 99.456 63.1955C101.863 67.4289 103.677 71.9675 105.485 76.489C103.582 77.4482 102.331 76.5801 100.201 76.5934C87.8613 76.6686 75.5314 72.6613 65.5957 65.3474C61.7331 68.5518 58.6112 70.8234 53.6349 71.4834C48.6591 72.1433 43.3887 69.5363 41.4728 64.8983Z" fill="#52B9CA"/>
<path fill-rule="evenodd" clip-rule="evenodd" d="M162.64 73.7531C164.588 75.1348 166.042 76.387 166.774 78.6559C167.286 80.2412 171.268 78.9737 171.753 77.6782C173.232 78.2545 173.334 79.5796 174.069 80.9848C174.806 82.391 178.428 81.3635 178.428 81.3635C178.44 81.3619 178.438 81.3619 178.449 81.3609C179.237 82.3709 182.77 81.989 182.787 81.7104C182.923 79.453 182.696 77.174 182.115 74.9882C182.994 76.5035 183.874 78.0188 184.753 79.5341C184.909 79.8021 188.681 78.9054 188.539 78.0241C187.974 74.5427 185.581 71.3585 182.316 69.9809C181.221 69.5196 179.781 69.2897 179.171 70.7346C178.879 71.4263 166.338 69.805 162.64 73.7531Z" fill="#D95D5D"/>
<path fill-rule="evenodd" clip-rule="evenodd" d="M174.493 72.1846C174.493 72.1846 179.274 74.2836 178.428 81.3639C178.428 81.3639 177.583 75.7698 174.493 72.1846Z" fill="#C94D4E"/>
<path fill-rule="evenodd" clip-rule="evenodd" d="M174.069 80.985C174.069 80.985 173.639 76.2219 170.154 74.25L171.754 77.6784L174.069 80.985Z" fill="#C94D4E"/>
<path fill-rule="evenodd" clip-rule="evenodd" d="M248.558 122.736C243.942 128.753 238.826 134.386 233.28 139.558C229.294 133.915 225.325 127.742 221.338 122.099C221.036 121.67 220.708 121.221 220.226 121.012C219.836 120.844 219.395 120.856 218.973 120.901C216.917 121.121 215.013 122.055 213.181 123.014C210.335 124.503 207.54 126.089 204.803 127.768C205.609 129.422 206.054 130.743 206.86 132.398C208.985 131.655 210.292 130.327 212.417 129.584C212.606 129.517 212.822 129.421 212.863 129.225C212.902 129.028 212.558 128.871 212.511 129.066C212.051 130.99 210.694 132.333 209.779 134.088C211.162 136.979 212.547 139.951 214.202 142.696C214.489 143.171 214.796 143.661 215.267 143.953C216.522 144.73 218.101 143.756 219.244 142.824C221.904 148.135 225.506 152.715 229.637 156.984C229.889 157.243 230.17 157.516 230.527 157.568C230.821 157.612 231.114 157.499 231.387 157.381C236.104 155.344 239.716 151.44 243.179 147.645C245.251 145.374 247.323 143.104 249.394 140.833" fill="#D95D5D"/>
<path fill-rule="evenodd" clip-rule="evenodd" d="M214.091 141.994L216.751 136.457C215.512 137.925 214.272 139.394 213.032 140.863" fill="#C94D4E"/>
<path fill-rule="evenodd" clip-rule="evenodd" d="M211.871 138.412C212.758 136.567 213.339 134.573 214.226 132.728C212.987 134.196 212.211 135.201 210.971 136.67" fill="#C94D4E"/>
</svg>
