<svg width="239" height="339" viewBox="0 0 239 339" fill="none" xmlns="http://www.w3.org/2000/svg">
<path d="M180.516 125.521L181.182 142.089C204.607 138.047 204.232 116.092 204.232 116.092L180.516 125.521Z" fill="#774F38"/>
<path d="M71.9668 79.7757C74.0069 78.405 76.8239 77.6072 78.9601 78.8444C81.1256 80.1073 81.653 82.8734 81.7224 85.3067C81.8892 91.3836 80.5568 97.4874 77.864 102.993C77.1284 104.482 76.2685 105.972 74.9641 107.036C73.6451 108.099 71.7866 108.671 70.1485 108.125C68.6639 107.62 67.6639 106.317 66.8175 105.04C65.0272 102.341 63.4877 99.3889 63.154 96.2116C62.6266 90.9852 67.5397 82.741 71.9668 79.7757Z" fill="#774F38"/>
<path d="M75.6426 156.98C75.6426 156.98 52.6483 154.082 45.806 149.161C38.965 144.228 26.3498 117.142 12.1403 127.128C-2.07034 137.101 17.7598 207.366 80.5557 199.095" fill="#FAC112"/>
<path d="M53.5081 152.498C62.8471 155.357 75.6426 156.979 75.6426 156.979L80.5557 199.092C78.6813 199.146 76.8215 199.345 74.9764 199.624C62.0287 200.409 51.0516 197.75 41.9623 193.029L53.5081 152.498Z" fill="#F6AA1F"/>
<path d="M22.3552 129.496C22.3552 129.496 20.4126 133.672 19.8852 139.429C19.3579 145.187 29.8076 149.362 29.8076 149.362C29.8076 149.362 17.2899 147.926 14.0977 142.195C10.9068 136.463 22.3552 129.496 22.3552 129.496Z" fill="#F6AA1F"/>
<path d="M5.48359 84.9883L20.5127 133.312L15.4608 138.884L0.778786 86.8499L5.48359 84.9883Z" fill="#774F38"/>
<path d="M7.54688 91.6498C6.22909 92.3023 4.36932 93.2197 2.78725 93.9777L0.775236 86.8499L5.47883 84.9883L7.54688 91.6498Z" fill="#FF5D5A"/>
<path d="M142.186 267.166C142.186 267.166 163.933 321.513 179.406 334.265C185.567 339.345 202.276 338.747 209.215 336.859C224.507 332.696 223.883 313.056 204.246 314.798L191.299 230.385" fill="#FAC112"/>
<path d="M67.9539 134.084C60.9959 134.084 55.3533 128.678 55.3533 122.01C55.3533 115.341 60.9959 109.936 67.9539 109.936C74.9131 109.936 80.5557 115.341 80.5557 122.01C80.5557 128.678 74.9131 134.084 67.9539 134.084Z" fill="#128377"/>
<path d="M55.3682 121.903C57.6579 125.069 61.4748 127.143 65.7899 127.117C72.6869 127.09 78.2662 121.744 78.3223 115.148C76.0314 111.984 72.2156 109.909 67.8993 109.936C60.9889 109.963 55.4242 115.309 55.3682 121.903Z" fill="#00A69C"/>
<path d="M103.231 219.176C96.8336 216.104 89.5066 214.402 82.4573 215.626C75.4068 216.836 67.0664 221.37 65.8595 228.126C63.1813 243.072 68.7606 258.099 73.6176 272.54C78.4601 286.98 82.5401 301.994 77.1971 316.275C73.7565 316.595 69.9955 317.073 67.6498 319.493C64.5831 322.685 65.4856 328.137 68.5937 331.289C71.7019 334.44 76.3506 335.743 80.8338 336.328C90.7562 337.631 101.552 335.81 109.004 329.4C116.637 322.858 119.593 312.738 121.535 303.11C124.075 290.664 125.533 278.032 127.004 265.426C129.155 247.008 120.537 227.501 103.231 219.176Z" fill="#FAC112"/>
<path d="M70.577 263.443C86.0641 275.318 104.826 283.271 124.421 286.156C125.406 279.267 126.212 272.353 127.017 265.438C128.293 254.455 125.754 243.112 119.842 233.963C112.945 228.843 105.034 224.84 96.4724 223.271C87.064 221.543 76.8079 222.993 69.0096 228.324C67.732 229.189 66.5384 230.16 65.4289 231.21C64.2767 242.021 67.1218 252.859 70.577 263.443Z" fill="#F6AA1F"/>
<path d="M159.348 152.846C166.051 153.711 172.212 149.203 173.114 142.78C173.767 138.073 171.421 133.645 167.48 131.278C167.452 131.264 167.425 131.238 167.383 131.224C167.272 131.157 167.161 131.092 167.036 131.025C166.994 130.998 166.939 130.972 166.897 130.945C166.786 130.891 166.675 130.839 166.578 130.772C166.523 130.746 166.467 130.719 166.412 130.692C166.273 130.625 166.134 130.56 165.995 130.506C165.87 130.453 165.745 130.399 165.635 130.36C165.565 130.334 165.482 130.307 165.412 130.28C165.315 130.24 165.218 130.2 165.107 130.173C165.038 130.147 164.955 130.121 164.871 130.094C164.76 130.068 164.663 130.028 164.552 130.001C164.469 129.974 164.399 129.961 164.316 129.934C164.205 129.907 164.094 129.882 163.983 129.855C163.914 129.842 163.83 129.815 163.761 129.802C163.636 129.775 163.511 129.748 163.386 129.722C163.317 129.708 163.261 129.695 163.192 129.682C162.998 129.641 162.803 129.616 162.609 129.589C162.415 129.562 162.221 129.549 162.026 129.536C161.957 129.536 161.901 129.522 161.832 129.522C161.707 129.509 161.568 129.509 161.444 129.496C161.36 129.496 161.291 129.496 161.222 129.496C161.11 129.496 160.986 129.496 160.875 129.496C160.791 129.496 160.722 129.496 160.639 129.496C160.528 129.496 160.417 129.509 160.306 129.509C160.222 129.509 160.139 129.522 160.056 129.522C159.945 129.536 159.834 129.536 159.737 129.549C159.653 129.562 159.57 129.562 159.487 129.576C159.362 129.589 159.223 129.616 159.112 129.628C158.946 129.655 158.793 129.682 158.64 129.708C158.571 129.722 158.515 129.735 158.446 129.748C158.321 129.775 158.21 129.802 158.085 129.828C158.044 129.842 157.988 129.855 157.933 129.867C157.808 129.894 157.669 129.934 157.544 129.974C157.516 129.988 157.475 129.988 157.447 130.001C152.992 131.291 149.509 134.961 148.843 139.669C147.941 146.091 152.645 151.995 159.348 152.846Z" fill="#F6AA1F"/>
<path d="M81.7223 56.5574L104.759 47.7812L186.385 123.377C186.385 123.377 181.167 142.1 194.115 177.552C204.287 205.423 215.639 233.601 194.781 256.286C173.923 278.972 91.7555 285.741 70.7866 256.592C49.1247 226.474 55.8963 190.331 61.5024 164.254C58.2969 116.09 77.1429 84.2156 77.1429 84.2156L81.7223 56.5574Z" fill="#FAC112"/>
<path d="M194.131 177.553C181.169 142.102 186.387 123.379 186.387 123.379L175.063 112.9L178.755 126.822C177.95 150.838 186.332 174.122 193.173 197.233C197.017 210.224 198.336 239.226 194.783 256.301C216.487 235.317 202.915 201.622 194.131 177.553Z" fill="#F6AA1F"/>
<path d="M184.788 133.829C185.107 131.435 185.412 129.414 185.662 127.792C185.745 126.994 185.829 126.33 185.926 125.744C185.69 124.588 185.454 123.43 185.204 122.274L165.859 104.362L104.758 47.7812L84.1491 55.626C83.0944 57.0495 82.0957 58.5256 81.1518 60.0018V60.0147L77.1546 84.2027C77.1546 84.2027 76.0037 86.1581 74.3108 89.8145C79.3201 89.1092 86.0917 86.7696 89.7978 83.8442C96.4172 78.6179 99.2197 72.9534 103.356 65.746C104.272 69.5887 106.366 73.0729 108.588 76.4107C126.281 103.045 153.633 123.616 184.788 133.829Z" fill="#F6AA1F"/>
<path d="M165.099 43.1673C165.099 43.1673 185.956 5.29546 215.654 19.6576C245.352 34.0186 244.449 69.4174 222.801 81.823C201.152 94.2298 170.303 75.786 170.303 75.786L165.099 43.1673Z" fill="#92603D"/>
<path d="M211.494 85.6509C191.802 88.6032 170.32 75.7852 170.32 75.7852L165.116 43.1795C165.116 43.1795 180.173 15.8388 202.932 16.4374C202.224 20.6925 199.893 25.8252 193.245 28.8712C193.245 28.8712 206.554 29.3363 207.858 39.762C209.163 50.1866 196.021 54.881 196.021 54.881C196.021 54.881 210.689 66.968 211.494 85.6509Z" fill="#774F36"/>
<path d="M168.355 46.9712C181.83 50.4953 201.314 53.5531 202.743 43.1812C204.173 32.8094 187.131 30.5354 182.871 32.0373C182.871 32.0373 201.855 18.514 194.459 12.5168C185.924 5.60223 171.478 25.083 171.478 25.083C171.478 25.083 171.977 -1.03349 160.875 0.907787C149.773 2.85024 158.988 27.1578 158.988 27.1578C158.988 27.1578 141.086 10.5755 132.537 18.7542C123.99 26.9317 147.345 44.2719 147.345 44.2719" fill="#F15A2B"/>
<path d="M194.461 42.3563C188.383 42.4758 182.36 41.4917 176.254 42.0107C172.549 42.3305 168.829 43.3006 165.096 43.1682C158.074 42.928 140.645 35.3222 140.242 27.5302C140.159 25.9474 141.519 24.5509 143.101 24.0729C144.669 23.5809 146.376 23.8327 147.972 24.2323C153.745 25.6686 158.935 29.1118 162.376 33.7793C161.086 28.6068 160.558 23.261 160.822 17.9421C160.878 16.8655 160.975 15.7478 161.558 14.8305C162.141 13.9131 163.362 13.2746 164.416 13.6741C165.221 13.9659 165.693 14.7508 166.054 15.4959C168.566 20.5348 169.079 26.4664 167.456 31.838C170.911 27.3837 175.588 23.7929 180.889 21.5458C182.471 20.8675 184.733 20.509 185.579 21.9454C186.204 22.9951 185.579 24.3248 184.899 25.3487C181.458 30.5352 176.309 34.6709 170.37 36.9847C174.838 35.6409 179.487 34.3252 184.136 34.8302C188.424 35.2555 193.698 37.9547 194.461 42.3563Z" fill="#FAC011"/>
<path d="M204.15 113.114C203.511 109.87 199.889 106.386 196.476 106.771C204.386 92.8485 203.789 75.1638 196.184 61.0945C188.579 47.0253 174.508 36.5867 158.771 31.72C143.034 26.8533 125.784 27.2915 109.854 31.5876C103.733 33.236 97.7243 35.4573 92.4653 38.8876C75.6032 49.8581 69.4418 71.2801 64.5847 90.243C68.2495 89.4451 71.8289 88.3544 75.2841 86.9579C79.6004 85.2299 83.7499 83.0227 87.2051 80.0164C92.0074 75.855 95.2824 70.3628 98.3077 64.8845C100.888 60.217 102.72 56.5594 105.051 51.7724C105.19 70.8677 119.123 87.2239 133.959 99.9634C147.433 111.533 162.837 121.865 180.517 125.535C187.858 127.05 196.656 126.93 201.513 121.439C203.733 118.912 204.788 116.359 204.15 113.114Z" fill="#A77C51"/>
<path d="M180.517 125.535C187.858 127.051 196.656 126.932 201.513 121.44C203.733 118.927 204.788 116.373 204.15 113.129C203.511 109.883 199.889 106.4 196.476 106.786C204.386 92.8628 203.789 75.177 196.184 61.1088C190.772 51.0815 182.071 42.9168 171.816 37.2793C172.052 37.7573 172.274 38.2236 172.482 38.6617C181.96 58.2092 185.249 79.4321 176.77 100.018C181.766 103.328 182.446 110.708 179.309 115.695C177.311 118.887 174.175 121.174 170.608 122.729C173.828 123.873 177.131 124.83 180.517 125.535Z" fill="#93603D"/>
<path d="M90.428 145.108C85.5295 143.047 80.4496 139.404 75.0384 142.608C71.4991 144.709 70.1533 149.057 70.1253 153.047C70.0559 162.448 76.1759 171.543 84.9608 175.733C93.7444 179.921 104.763 179.203 113.118 174.257C121.471 169.309 127.008 160.413 128.021 151.051C128.299 148.513 128.174 145.707 126.467 143.751C124.261 141.211 120.167 141.039 116.892 142.063C113.617 143.087 110.731 145.054 107.511 146.225C101.904 148.22 95.7844 147.355 90.428 145.108Z" fill="#221E1F"/>
<path d="M89.0512 153.511C89.7856 152.567 90.1327 151.397 90.4518 150.254C90.8963 148.711 91.3409 147.168 91.7842 145.639C91.3262 145.465 90.8683 145.293 90.4104 145.107C87.9124 144.056 85.3597 142.594 82.7509 141.836C82.3892 144.734 82.4172 147.687 82.8471 150.585C83.1394 152.434 83.9432 154.628 85.8724 154.947C87.094 155.16 88.3155 154.455 89.0512 153.511Z" fill="white"/>
<path d="M90.4251 145.107C87.9271 144.056 85.3744 142.594 82.7656 141.836C82.5707 143.432 82.5013 145.04 82.5293 146.65C83.9591 147.793 85.7215 148.564 87.4972 149.15C88.4959 149.482 89.5238 149.747 90.5505 149.988C90.967 148.537 91.3969 147.088 91.8135 145.639C91.3409 145.465 90.883 145.293 90.4251 145.107Z" fill="#CECFCF"/>
<path d="M107.2 146.318C107.395 148.619 107.797 150.893 108.394 153.127C108.81 154.695 109.741 156.571 111.434 156.571C113.016 156.571 113.973 154.922 114.486 153.485C115.791 149.842 116.512 145.999 116.638 142.156C113.459 143.206 110.642 145.095 107.492 146.225C107.395 146.252 107.284 146.278 107.2 146.318Z" fill="white"/>
<path d="M107.492 146.213C107.395 146.253 107.297 146.279 107.2 146.306C107.312 147.489 107.464 148.674 107.673 149.857C110.225 149.445 113.154 149.019 115.874 148.46C116.304 146.373 116.568 144.258 116.638 142.145C113.459 143.194 110.642 145.083 107.492 146.213Z" fill="#CFCECE"/>
<path d="M80.0411 172.647C81.5538 173.845 83.2053 174.882 84.9542 175.719C93.7379 179.908 104.756 179.189 113.111 174.243C116.691 172.128 119.744 169.27 122.159 165.972C115.914 161.69 106.103 160.56 99.1783 161.744C91.7125 163.021 84.8288 167.036 80.0411 172.647Z" fill="#FF5D5A"/>
<path d="M106.63 161.371C105.644 163.592 104.659 165.812 103.521 167.887C101.453 171.65 98.9834 175.081 96.2504 178.418C102.12 178.645 108.101 177.208 113.111 174.243C116.691 172.13 119.744 169.27 122.159 165.972C117.94 163.1 112.098 161.651 106.63 161.371Z" fill="#CD4F4F"/>
<path d="M159.935 149.15C152.975 149.15 147.334 143.745 147.334 137.076C147.334 130.408 152.975 125.002 159.935 125.002C166.894 125.002 172.535 130.408 172.535 137.076C172.535 143.745 166.894 149.15 159.935 149.15Z" fill="#128377"/>
<path d="M147.347 136.971C149.636 140.135 153.453 142.21 157.769 142.183C164.666 142.156 170.244 136.81 170.3 130.216C168.01 127.05 164.194 124.976 159.878 125.002C152.981 125.042 147.402 130.388 147.347 136.971Z" fill="#00A69C"/>
<path d="M153.444 197.819H155.568C185.418 170.664 201.516 233.748 220.916 230.969C240.011 228.23 235.959 152.513 156.65 157.42L147.352 168.683L153.444 197.819Z" fill="#FAC112"/>
<path d="M132.547 115.774C132.477 101.904 120.695 90.707 106.221 90.7737C91.7463 90.8405 80.0616 102.13 80.131 116C80.2005 129.869 91.9826 141.065 106.456 140.999C120.931 140.946 132.616 129.643 132.547 115.774Z" fill="#F6AB21"/>
<path d="M87.5268 94.3651C98.6281 86.5191 108.149 89.9904 108.149 89.9904C124.038 92.596 128.174 104.152 128.174 104.152C134.696 108.393 136.291 100.256 136.291 100.256C132.558 104.232 130.214 100.907 130.214 100.907C130.214 100.907 123.135 88.7802 108.149 86.9842C96.8098 85.6416 87.5268 94.3651 87.5268 94.3651Z" fill="#221F1F"/>
<path d="M130.382 113.644C130.312 99.7747 118.531 88.578 104.056 88.6448C89.5825 88.7104 77.8978 100.001 77.9672 113.87C78.0366 127.74 89.8188 138.936 104.293 138.87C118.766 138.816 130.451 127.527 130.382 113.644Z" fill="white"/>
<path d="M113.49 112.025C113.449 102.889 105.677 95.5092 96.1433 95.549C86.596 95.5888 78.8939 103.035 78.9499 112.171C78.9913 121.306 86.7628 128.687 96.3101 128.647C105.831 128.607 113.533 121.159 113.49 112.025Z" fill="#3DABDF"/>
<path d="M106.995 112.055C106.968 105.592 101.472 100.379 94.7282 100.406C87.9833 100.432 82.5295 105.698 82.5709 112.161C82.5989 118.624 88.0941 123.836 94.839 123.809C101.584 123.783 107.023 118.518 106.995 112.055Z" fill="#221E1F"/>
<path d="M106.604 108.192C106.591 105.346 104.176 103.059 101.207 103.072C98.2361 103.086 95.8356 105.4 95.8502 108.246C95.8636 111.092 98.2787 113.379 101.248 113.366C104.232 113.352 106.619 111.038 106.604 108.192Z" fill="white"/>
</svg>
